<svg width="134" height="128" viewBox="0 0 134 128" fill="none" xmlns="http://www.w3.org/2000/svg">
      <path d="M93.6177 46.3882H2.09656C2.00137 46.3858 1.91076 46.3389 1.84415 46.2576C1.77754 46.1762 1.74023 46.0669 1.74023 45.9531C1.74023 45.8393 1.77754 45.73 1.84415 45.6487C1.91076 45.5674 2.00137 45.5205 2.09656 45.5181H93.6177C93.7129 45.5205 93.8035 45.5674 93.8701 45.6487C93.9367 45.73 93.974 45.8393 93.974 45.9531C93.974 46.0669 93.9367 46.1762 93.8701 46.2576C93.8035 46.3389 93.7129 46.3858 93.6177 46.3882Z" fill="#E6E6E6"/>
      <path d="M6.45053 43.3443C7.75996 43.3443 8.82146 42.2727 8.82146 40.9507C8.82146 39.6288 7.75996 38.5571 6.45053 38.5571C5.14109 38.5571 4.07959 39.6288 4.07959 40.9507C4.07959 42.2727 5.14109 43.3443 6.45053 43.3443Z" fill="#008080"/>
      <path d="M14.641 43.3443C15.9504 43.3443 17.0119 42.2727 17.0119 40.9507C17.0119 39.6288 15.9504 38.5571 14.641 38.5571C13.3315 38.5571 12.27 39.6288 12.27 40.9507C12.27 42.2727 13.3315 43.3443 14.641 43.3443Z" fill="#008080"/>
      <path d="M22.8319 43.3443C24.1413 43.3443 25.2028 42.2727 25.2028 40.9507C25.2028 39.6288 24.1413 38.5571 22.8319 38.5571C21.5224 38.5571 20.4609 39.6288 20.4609 40.9507C20.4609 42.2727 21.5224 43.3443 22.8319 43.3443Z" fill="#008080"/>
      <path d="M7.01078 62.4159C8.62964 62.4159 9.94198 61.1199 9.94198 59.5212C9.94198 57.9225 8.62964 56.6265 7.01078 56.6265C5.39193 56.6265 4.07959 57.9225 4.07959 59.5212C4.07959 61.1199 5.39193 62.4159 7.01078 62.4159Z" fill="#F1F1F1"/>
      <path d="M81.654 65.9308H4.95244C4.72094 65.9308 4.49893 65.8399 4.33524 65.6783C4.17155 65.5166 4.07959 65.2974 4.07959 65.0688C4.07959 64.8402 4.17155 64.6209 4.33524 64.4593C4.49893 64.2976 4.72094 64.2068 4.95244 64.2068H81.654C81.8855 64.2068 82.1075 64.2976 82.2712 64.4593C82.4349 64.6209 82.5269 64.8402 82.5269 65.0688C82.5269 65.2974 82.4349 65.5166 82.2712 65.6783C82.1075 65.8399 81.8855 65.9308 81.654 65.9308Z" fill="#F1F1F1"/>
      <path d="M61.5377 69.3371H4.95248C4.72098 69.3371 4.49896 69.2463 4.33526 69.0846C4.17156 68.9229 4.07959 68.7037 4.07959 68.4751C4.07959 68.2464 4.17156 68.0272 4.33526 67.8655C4.49896 67.7039 4.72098 67.613 4.95248 67.613H61.5377C61.7692 67.613 61.9912 67.7039 62.1549 67.8655C62.3186 68.0272 62.4106 68.2464 62.4106 68.4751C62.4106 68.7037 62.3186 68.9229 62.1549 69.0846C61.9912 69.2463 61.7692 69.3371 61.5377 69.3371Z" fill="#F1F1F1"/>
      <path d="M7.01078 83.3036C8.62964 83.3036 9.94198 82.0076 9.94198 80.4089C9.94198 78.8102 8.62964 77.5142 7.01078 77.5142C5.39193 77.5142 4.07959 78.8102 4.07959 80.4089C4.07959 82.0076 5.39193 83.3036 7.01078 83.3036Z" fill="#F1F1F1"/>
      <path d="M81.654 86.8187H4.95244C4.72094 86.8187 4.49893 86.7279 4.33524 86.5662C4.17155 86.4046 4.07959 86.1853 4.07959 85.9567C4.07959 85.7281 4.17155 85.5089 4.33524 85.3472C4.49893 85.1855 4.72094 85.0947 4.95244 85.0947H81.654C81.8855 85.0947 82.1075 85.1855 82.2712 85.3472C82.4349 85.5089 82.5269 85.7281 82.5269 85.9567C82.5269 86.1853 82.4349 86.4046 82.2712 86.5662C82.1075 86.7279 81.8855 86.8187 81.654 86.8187Z" fill="#F1F1F1"/>
      <path d="M70.9728 90.2248H4.95248C4.72098 90.2248 4.49896 90.134 4.33526 89.9723C4.17156 89.8106 4.07959 89.5914 4.07959 89.3628C4.07959 89.1341 4.17156 88.9149 4.33526 88.7532C4.49896 88.5915 4.72098 88.5007 4.95248 88.5007H70.9728C71.2043 88.5007 71.4264 88.5915 71.59 88.7532C71.7537 88.9149 71.8457 89.1341 71.8457 89.3628C71.8457 89.5914 71.7537 89.8106 71.59 89.9723C71.4264 90.134 71.2043 90.2248 70.9728 90.2248Z" fill="#F1F1F1"/>
      <path d="M66.4918 93.631H4.95248C4.72098 93.631 4.49896 93.5402 4.33526 93.3786C4.17156 93.2169 4.07959 92.9976 4.07959 92.769C4.07959 92.5404 4.17156 92.3211 4.33526 92.1595C4.49896 91.9978 4.72098 91.907 4.95248 91.907H66.4918C66.7233 91.907 66.9454 91.9978 67.1091 92.1595C67.2728 92.3211 67.3647 92.5404 67.3647 92.769C67.3647 92.9976 67.2728 93.2169 67.1091 93.3786C66.9454 93.5402 66.7233 93.631 66.4918 93.631Z" fill="#F1F1F1"/>
      <path d="M100.853 115.346L98.5052 115.346L97.3882 106.402L100.854 106.402L100.853 115.346Z" fill="#F3DCCF"/>
      <path d="M100.936 117.764L93.7153 117.764V117.674C93.7154 116.938 94.0115 116.232 94.5385 115.711C95.0656 115.191 95.7804 114.899 96.5257 114.899L97.8448 113.91L100.306 114.899L100.936 114.899L100.936 117.764Z" fill="#3F3D56"/>
      <path d="M117.467 115.346L119.815 115.346L120.932 106.402L117.466 106.402L117.467 115.346Z" fill="#F3DCCF"/>
      <path d="M117.384 117.764L124.604 117.764V117.674C124.604 116.938 124.308 116.232 123.781 115.711C123.254 115.191 122.539 114.899 121.794 114.899L120.475 113.91L118.014 114.899L117.384 114.899L117.384 117.764Z" fill="#3F3D56"/>
      <path d="M97.2848 99.8291C97.3195 99.3187 97.5952 96.4964 97.5952 96.4964L98.2556 90.5109L99.4196 74.6448L99.4955 73.6062L105.593 72.4502L109.76 70.4773L114.713 72.0409L118.57 73.4692C118.57 73.4692 118.576 74.0806 118.606 74.8193C118.646 75.7861 118.715 76.9715 118.88 77.2796C119.156 77.8242 119.087 80.7477 119.087 80.7477C119.087 80.7477 119.361 86.6956 119.706 87.3478C120.051 88 120.12 89.3582 120.016 89.6305C119.912 89.9028 120.361 97.0459 120.361 97.0459C120.361 97.0459 121.514 109.687 120.791 111.593C120.068 113.499 117.335 112.25 117.335 112.25C117.335 112.25 117.467 111.741 116.674 111.502C115.882 111.262 113.468 93.3382 113.468 93.3382C113.468 93.3382 113.019 89.663 112.606 88.6098C112.194 87.5565 111.814 84.5972 111.814 84.5972C111.814 84.5972 109.265 79.6992 109.232 78.6101C109.232 78.6101 108.898 77.591 108.583 78.7128C108.267 79.8346 107.338 82.5216 107.338 82.5216L106.431 85.8217L105.365 90.7522L104.675 94.9034C104.675 94.9034 103.641 100.413 103.476 100.651C103.311 100.889 103.476 105.922 103.476 105.922C103.476 105.922 102.677 110.209 101.548 110.957C100.418 111.705 97.4265 110.969 97.4265 110.969C97.4265 110.969 97.2501 100.339 97.2848 99.8291Z" fill="#008080"/>
      <path d="M99.8861 59.1354L101.242 63.1676L99.5691 65.1338L100.306 65.8824L99.7623 66.9404L98.3457 78.031L106.112 80.9397L108.727 77.7015L110.79 80.9397L119.776 78.7712L117.484 64.6285V63.7039L116.837 61.9185V58.1391L118.546 46.8889L113.446 45.1247L111.007 43.2188L110.218 45.8992L106.858 45.3091L106.771 43.2952L104.2 45.6938L102.036 46.3035L99.4436 46.8889L99.1134 47.7041L99.7737 47.5411L99.6665 58.1474L99.8861 59.1354Z" fill="#008080"/>
      <path d="M97.5645 73.8887L98.8689 61.4204L99.2132 56.2889L95.5623 55.637C95.5623 55.637 95.707 59.3062 95.2287 61.3764C94.7567 63.4192 95.1661 73.615 95.1953 73.8876C94.9271 74.1244 94.7381 74.4359 94.6532 74.7811C94.5683 75.1263 94.5915 75.4888 94.7198 75.8206C94.848 76.1525 95.0753 76.4381 95.3714 76.6396C95.6676 76.8411 96.0187 76.9491 96.3784 76.9493C96.7381 76.9495 97.0894 76.8418 97.3857 76.6405C97.6821 76.4393 97.9096 76.1539 98.0382 75.8222C98.1667 75.4904 98.1903 75.128 98.1057 74.7827C98.0211 74.4375 97.8324 74.1257 97.5645 73.8887Z" fill="#F3DCCF"/>
      <path d="M94.0031 64.0039L95.0185 64.211L98.5022 64.9235L98.6953 64.9626L99.1064 63.3484L99.5836 62.8463L100.492 58.1472L100.54 57.9027L101.912 55.0069L102.861 46.3035L99.3309 46.9296C99.3127 46.9475 99.2962 46.9671 99.2797 46.9866C98.7728 47.554 98.4113 48.3432 97.8202 49.1372C95.8967 51.7215 94.4208 58.0005 94.4786 61.4408C94.4803 61.4962 94.4225 61.5565 94.3531 61.6185C94.0258 61.9157 93.8123 62.3152 93.7485 62.7497C93.6847 63.1842 93.7747 63.6272 94.0031 64.0039Z" fill="#008080"/>
      <path d="M120.259 73.8887L118.955 61.4204L118.611 56.2889L122.262 55.637C122.262 55.637 122.117 59.3062 122.595 61.3764C123.067 63.4192 122.658 73.615 122.629 73.8876C122.897 74.1244 123.086 74.4359 123.171 74.7811C123.256 75.1263 123.232 75.4887 123.104 75.8206C122.976 76.1525 122.749 76.4381 122.453 76.6396C122.156 76.8411 121.805 76.9491 121.446 76.9493C121.086 76.9495 120.735 76.8418 120.438 76.6405C120.142 76.4393 119.914 76.1539 119.786 75.8222C119.657 75.4904 119.634 75.128 119.718 74.7827C119.803 74.4375 119.992 74.1257 120.259 73.8887Z" fill="#F3DCCF"/>
      <path d="M123.821 64.0039L122.806 64.211L119.322 64.9235L119.129 64.9626L118.718 63.3484L118.241 62.8463L117.332 58.1472L117.285 57.9027L115.913 55.0069L116.226 46.3035L118.493 46.9296C118.511 46.9475 118.528 46.9671 118.544 46.9866C119.051 47.554 119.413 48.3432 120.004 49.1372C121.927 51.7215 123.403 58.0005 123.346 61.4408C123.344 61.4962 123.402 61.5565 123.471 61.6185C123.798 61.9157 124.012 62.3152 124.076 62.7497C124.139 63.1843 124.049 63.6272 123.821 64.0039Z" fill="#008080"/>
      <path d="M105.113 47.5914L106.771 43.2954L111.008 43.2188L112.413 47.5914L117.466 75.4672C117.466 75.4672 101.986 79.7244 102.143 74.607C102.308 69.2264 103.053 62.0792 103.053 62.0792L105.113 47.5914Z" fill="#CAF031"/>
      <path d="M108.794 42.0939C111.551 42.0939 113.785 39.8873 113.785 37.1654C113.785 34.4434 111.551 32.2368 108.794 32.2368C106.038 32.2368 103.804 34.4434 103.804 37.1654C103.804 39.8873 106.038 42.0939 108.794 42.0939Z" fill="#F3DCCF"/>
      <path d="M103.509 33.5897C104.322 32.7164 105.338 31.1177 108.416 30.4464C112.22 29.6169 114.017 33.0102 113.058 33.0658C115.863 33.9046 114.061 39.6366 113.257 39.1559C113.25 39.1512 113.243 39.1461 113.237 39.1406C112.805 38.8261 112.442 38.4278 112.17 37.9701C111.899 37.5124 111.725 37.0049 111.659 36.4785L111.506 35.1221C111.485 36.2257 110.342 36.3717 109.175 35.9653C109.244 35.7233 109.376 35.5033 109.557 35.3269C109.739 35.1505 109.964 35.0239 110.21 34.9596C109.396 35.6878 108.363 36.1318 107.269 36.2232C107.326 35.9469 107.443 35.6859 107.611 35.4577C107.779 35.2295 107.994 35.0395 108.242 34.9003L108.196 34.8556C107.741 35.2351 107.217 35.5277 106.653 35.7183C106.01 35.9004 105.239 35.8019 104.799 35.3047C104.68 35.1674 104.59 35.0081 104.535 34.8361C104.63 35.7101 104.037 36.7078 103.576 36.5365C103.192 36.4629 102.968 34.1711 103.509 33.5897Z" fill="#3F3D56"/>
      <g filter="url(#filter0_d_3058_5509)">
      <path d="M82.181 33.285C90.0847 33.285 96.492 26.9576 96.492 19.1523C96.492 11.347 90.0847 5.01953 82.181 5.01953C74.2773 5.01953 67.8701 11.347 67.8701 19.1523C67.8701 26.9576 74.2773 33.285 82.181 33.285Z" fill="white"/>
      </g>
      <path d="M82.1616 24.0831C83.2907 24.0831 84.206 23.1792 84.206 22.0641C84.206 20.9491 83.2907 20.0452 82.1616 20.0452C81.0325 20.0452 80.1172 20.9491 80.1172 22.0641C80.1172 23.1792 81.0325 24.0831 82.1616 24.0831Z" fill="#ACACAC"/>
      <path d="M82.1614 22.9955C82.6825 22.9955 83.1049 22.5783 83.1049 22.0637C83.1049 21.549 82.6825 21.1318 82.1614 21.1318C81.6402 21.1318 81.2178 21.549 81.2178 22.0637C81.2178 22.5783 81.6402 22.9955 82.1614 22.9955Z" fill="#E6E7E8"/>
      <path d="M85.9567 26.558H78.406C77.6584 26.5572 76.9416 26.2635 76.4129 25.7414C75.8842 25.2194 75.5868 24.5115 75.5859 23.7732V20.3543C75.5868 19.6159 75.8842 18.9081 76.4129 18.386C76.9415 17.8639 77.6584 17.5702 78.406 17.5693H85.9567C86.7044 17.5702 87.4212 17.8639 87.9498 18.386C88.4785 18.9081 88.7759 19.616 88.7767 20.3543V23.7732C88.7759 24.5115 88.4785 25.2194 87.9498 25.7414C87.4212 26.2635 86.7044 26.5572 85.9567 26.558ZM78.406 17.8609C77.7366 17.8617 77.0949 18.1246 76.6216 18.5921C76.1482 19.0595 75.882 19.6933 75.8812 20.3543V23.7732C75.882 24.4342 76.1482 25.0679 76.6216 25.5353C77.0949 26.0028 77.7366 26.2657 78.406 26.2664H85.9567C86.6261 26.2657 87.2678 26.0028 87.7411 25.5353C88.2145 25.0679 88.4807 24.4342 88.4815 23.7732V20.3543C88.4807 19.6933 88.2145 19.0595 87.7412 18.5921C87.2678 18.1246 86.6261 17.8617 85.9567 17.8609L78.406 17.8609Z" fill="#ACACAC"/>
      <path d="M77.9585 24.7018H84.6605C85.0084 24.7018 85.3528 24.6341 85.6742 24.5026C85.9956 24.3712 86.2876 24.1785 86.5336 23.9355C86.7796 23.6926 86.9747 23.4042 87.1078 23.0869C87.241 22.7695 87.3095 22.4293 87.3095 22.0858V19.2247C87.309 18.9074 87.2497 18.5929 87.1347 18.2966C87.4617 18.5398 87.727 18.8546 87.9097 19.2163C88.0924 19.578 88.1875 19.9766 88.1875 20.3808V23.2419C88.1875 23.5854 88.119 23.9256 87.9859 24.243C87.8528 24.5604 87.6576 24.8488 87.4117 25.0917C87.1657 25.3346 86.8737 25.5273 86.5523 25.6588C86.2309 25.7902 85.8864 25.8579 85.5386 25.8579H78.8365C78.2994 25.8576 77.7751 25.696 77.3332 25.3945C76.8913 25.093 76.5527 24.666 76.3623 24.17C76.8211 24.515 77.3818 24.7018 77.9585 24.7018Z" fill="#ACACAC"/>
      <path d="M82.2974 11.4893C80.8977 11.4893 79.6673 12.115 78.9707 13.0543C79.7154 12.5191 80.6145 12.2342 81.5356 12.2416C83.7031 12.2416 85.4665 13.7411 85.4665 15.5841V17.1161H86.2284V14.8317C86.2284 12.9887 84.4649 11.4893 82.2974 11.4893Z" fill="#ACACAC"/>
      <path d="M86.7517 17.9H77.6104V15.2439C77.6104 13.1009 79.6607 11.3574 82.181 11.3574C84.7013 11.3574 86.7517 13.1009 86.7517 15.2439V17.9ZM77.9056 17.6084H86.4564V15.2439C86.4564 13.2616 84.5385 11.649 82.181 11.649C79.8235 11.649 77.9056 13.2616 77.9056 15.2439V17.6084Z" fill="#ACACAC"/>
      <path d="M84.5222 16.8856H79.8399C79.6292 16.8853 79.4273 16.8026 79.2784 16.6555C79.1294 16.5084 79.0456 16.3089 79.0454 16.1009V15.0439C79.0454 13.5701 80.4521 12.3711 82.181 12.3711C83.91 12.3711 85.3166 13.5701 85.3166 15.0439V16.1009C85.3164 16.3089 85.2326 16.5084 85.0837 16.6555C84.9347 16.8026 84.7328 16.8853 84.5222 16.8856ZM82.181 12.6627C80.6148 12.6627 79.3407 13.7308 79.3407 15.0439V16.1009C79.3408 16.2316 79.3935 16.3569 79.487 16.4494C79.5806 16.5418 79.7075 16.5938 79.8399 16.594H84.5222C84.6545 16.5938 84.7814 16.5418 84.875 16.4494C84.9686 16.3569 85.0212 16.2316 85.0214 16.1009V15.0439C85.0214 13.7308 83.7472 12.6627 82.181 12.6627Z" fill="#ACACAC"/>
      <defs>
      <filter id="filter0_d_3058_5509" x="59.8701" y="0.0195312" width="44.6221" height="44.2654" filterUnits="userSpaceOnUse" color-interpolation-filters="sRGB">
      <feFlood flood-opacity="0" result="BackgroundImageFix"/>
      <feColorMatrix in="SourceAlpha" type="matrix" values="0 0 0 0 0 0 0 0 0 0 0 0 0 0 0 0 0 0 127 0" result="hardAlpha"/>
      <feOffset dy="3"/>
      <feGaussianBlur stdDeviation="4"/>
      <feColorMatrix type="matrix" values="0 0 0 0 0 0 0 0 0 0 0 0 0 0 0 0 0 0 0.1 0"/>
      <feBlend mode="normal" in2="BackgroundImageFix" result="effect1_dropShadow_3058_5509"/>
      <feBlend mode="normal" in="SourceGraphic" in2="effect1_dropShadow_3058_5509" result="shape"/>
      </filter>
      </defs>
      </svg>
      