<svg width="124" height="109" viewBox="0 0 124 109" fill="none" xmlns="http://www.w3.org/2000/svg">
      <path d="M114.634 35.6384H71.2817V34.7307H51.624V35.6384H8.09287C7.31507 35.6384 6.56912 35.9523 6.01913 36.5111C5.46914 37.0699 5.16016 37.8277 5.16016 38.6179V98.9267C5.16016 99.7169 5.46914 100.475 6.01913 101.034C6.56912 101.592 7.31507 101.906 8.09287 101.906H114.634C115.412 101.906 116.158 101.592 116.708 101.034C117.258 100.475 117.567 99.7169 117.567 98.9267V38.6176C117.567 37.8274 117.258 37.0697 116.708 36.511C116.158 35.9523 115.412 35.6384 114.634 35.6384Z" fill="#E6E6E6"/>
      <path d="M113.635 40.9036H9.0918V100.817H113.635V40.9036Z" fill="#F1F1F1"/>
      <path d="M109.237 44.0718H13.5254V95.8592H109.237V44.0718Z" fill="white"/>
      <path d="M61.2739 39.2696C61.8661 39.2696 62.3462 38.7818 62.3462 38.1802C62.3462 37.5785 61.8661 37.0908 61.2739 37.0908C60.6817 37.0908 60.2017 37.5785 60.2017 38.1802C60.2017 38.7818 60.6817 39.2696 61.2739 39.2696Z" fill="#008080"/>
      <path d="M120.502 99.7271H110.299V98.9802C110.299 98.9409 110.284 98.9032 110.256 98.8754C110.229 98.8476 110.192 98.832 110.153 98.832H106.655C106.616 98.832 106.579 98.8476 106.552 98.8754C106.525 98.9032 106.509 98.9409 106.509 98.9802V99.7271H104.323V98.9802C104.323 98.9409 104.308 98.9032 104.28 98.8754C104.253 98.8476 104.216 98.832 104.177 98.832H100.679C100.64 98.832 100.603 98.8476 100.576 98.8754C100.549 98.9032 100.533 98.9409 100.533 98.9802V99.7271H98.3472V98.9802C98.3472 98.9409 98.3318 98.9032 98.3045 98.8754C98.2771 98.8476 98.24 98.832 98.2013 98.832H94.7033C94.6646 98.832 94.6275 98.8476 94.6002 98.8754C94.5728 98.9032 94.5575 98.9409 94.5575 98.9802V99.7271H92.3712V98.9802C92.3712 98.9409 92.3559 98.9032 92.3285 98.8754C92.3012 98.8476 92.2641 98.832 92.2254 98.832H88.7275C88.6888 98.832 88.6518 98.8476 88.6244 98.8754C88.5971 98.9032 88.5817 98.9409 88.5817 98.9802V99.7271H86.3953V98.9802C86.3953 98.9409 86.38 98.9032 86.3526 98.8754C86.3253 98.8476 86.2882 98.832 86.2495 98.832H82.7516C82.7129 98.832 82.6758 98.8476 82.6485 98.8754C82.6212 98.9032 82.6058 98.9409 82.6058 98.9802V99.7271H80.4194V98.9802C80.4194 98.9409 80.4041 98.9032 80.3767 98.8754C80.3494 98.8476 80.3123 98.832 80.2736 98.832H76.7764C76.7377 98.832 76.7006 98.8476 76.6733 98.8754C76.6459 98.9032 76.6306 98.9409 76.6306 98.9802V99.7271H74.4435V98.9802C74.4435 98.9409 74.4282 98.9032 74.4008 98.8754C74.3735 98.8476 74.3364 98.832 74.2977 98.832H46.8962C46.8575 98.832 46.8204 98.8476 46.7931 98.8754C46.7657 98.9032 46.7504 98.9409 46.7504 98.9802V99.7271H44.5641V98.9802C44.5641 98.9409 44.5488 98.9032 44.5214 98.8754C44.4941 98.8476 44.457 98.832 44.4183 98.832H40.9202C40.8816 98.832 40.8445 98.8476 40.8171 98.8754C40.7898 98.9032 40.7744 98.9409 40.7744 98.9802V99.7271H38.5882V98.9802C38.5882 98.9409 38.5729 98.9032 38.5455 98.8754C38.5182 98.8476 38.4811 98.832 38.4424 98.832H34.9445C34.9058 98.832 34.8688 98.8476 34.8414 98.8754C34.8141 98.9032 34.7987 98.9409 34.7987 98.9802V99.7271H32.6123V98.9802C32.6123 98.9409 32.597 98.9032 32.5696 98.8754C32.5423 98.8476 32.5052 98.832 32.4665 98.832H28.9686C28.9299 98.832 28.8928 98.8476 28.8655 98.8754C28.8382 98.9032 28.8228 98.9409 28.8228 98.9802V99.7271H26.6369V98.9802C26.6369 98.9409 26.6216 98.9032 26.5942 98.8754C26.5669 98.8476 26.5298 98.832 26.4911 98.832H22.9927C22.954 98.832 22.9169 98.8476 22.8896 98.8754C22.8622 98.9032 22.8469 98.9409 22.8469 98.9802V99.7271H20.6607V98.9802C20.6607 98.9409 20.6453 98.9032 20.618 98.8754C20.5906 98.8476 20.5535 98.832 20.5149 98.832H17.0168C16.9781 98.832 16.941 98.8476 16.9137 98.8754C16.8863 98.9032 16.871 98.9409 16.871 98.9802V99.7271H14.6848V98.9802C14.6848 98.9409 14.6694 98.9032 14.6421 98.8754C14.6147 98.8476 14.5776 98.832 14.539 98.832H11.0402C11.0015 98.832 10.9645 98.8476 10.9371 98.8754C10.9098 98.9032 10.8944 98.9409 10.8944 98.9802V99.7271H4.19048C3.26273 99.7271 2.37297 100.101 1.71695 100.768C1.06093 101.434 0.692383 102.338 0.692383 103.281V104.888C0.692383 105.83 1.06093 106.734 1.71695 107.401C2.37297 108.067 3.26273 108.442 4.19048 108.442H120.502C121.429 108.442 122.319 108.067 122.975 107.401C123.631 106.734 124 105.83 124 104.888V103.281C124 102.339 123.631 101.435 122.975 100.768C122.319 100.102 121.429 99.7272 120.502 99.7272V99.7271Z" fill="#E6E6E6"/>
      <path d="M61.9998 49H61.0002C48.8498 49 39 58.8498 39 71.0002V71.4778C39 83.7513 49.2386 93.545 61.5 93C73.7614 93.545 84 83.7513 84 71.4778V71.0002C84 58.8498 74.1502 49 61.9998 49Z" fill="#008080"/>
      <path d="M66.4878 60.4994C69.5944 60.4994 72.1128 57.9408 72.1128 54.7847C72.1128 51.6286 69.5944 49.0701 66.4878 49.0701C63.3812 49.0701 60.8628 51.6286 60.8628 54.7847C60.8628 57.9408 63.3812 60.4994 66.4878 60.4994Z" fill="#F3DCCF"/>
      <path d="M53.5454 92.9972L57.178 69.7646C57.3711 68.5294 57.821 67.3501 58.4976 66.3052C59.1743 65.2604 60.0622 64.3739 61.1022 63.7047C62.1423 63.0356 63.3108 62.5992 64.5298 62.4245C65.7488 62.2498 66.9905 62.3408 68.1722 62.6916C70.2383 63.2987 72.0074 64.6665 73.1339 66.5278C74.2605 68.3892 74.6635 70.6103 74.2644 72.7574L70.4652 93.5052L53.5454 92.9972Z" fill="#CAF031"/>
      <path d="M68.0411 97.154C68.3221 96.9655 68.5589 96.7167 68.735 96.4252C68.911 96.1336 69.022 95.8064 69.0602 95.4666C69.0983 95.1267 69.0626 94.7825 68.9556 94.4582C68.8487 94.1339 68.673 93.8373 68.441 93.5895L72.1961 86.2019L67.9673 86.6603L65.0497 93.6055C64.6673 94.0294 64.4508 94.5809 64.4412 95.1559C64.4317 95.7308 64.6297 96.2894 64.9978 96.7262C65.366 97.163 65.8788 97.4477 66.4395 97.5265C67.0002 97.6054 67.5698 97.4729 68.0409 97.1542L68.0411 97.154Z" fill="#F3DCCF"/>
      <path d="M68.8452 92.2862C68.6375 92.2564 68.4437 92.163 68.2895 92.0184L66.8528 90.6697C66.6976 90.5232 66.5905 90.332 66.5458 90.1217C66.5011 89.9114 66.521 89.6922 66.6029 89.4938L69.4743 82.5792L69.0669 68.9168C69.1859 68.0305 69.6466 67.2285 70.3477 66.6872C71.0487 66.146 71.9327 65.9098 72.8052 66.0307C73.6776 66.1516 74.467 66.6197 74.9998 67.3319C75.5325 68.0442 75.765 68.9423 75.646 69.8286L76.3425 78.4171C76.5542 81.0237 75.8268 83.6197 74.2956 85.7222L69.8177 91.8723C69.7316 91.9905 69.6219 92.0889 69.4958 92.1612C69.3698 92.2335 69.2301 92.2781 69.086 92.2919C69.0058 92.2997 68.925 92.2978 68.8452 92.2862Z" fill="#CAF031"/>
      <path d="M34.0952 51.6713C34.1565 52.0076 34.2896 52.3262 34.4852 52.6046C34.6808 52.883 34.9341 53.1144 35.2272 53.2826C35.5204 53.4508 35.8463 53.5517 36.1819 53.5781C36.5176 53.6045 36.8549 53.5558 37.17 53.4354L42.4023 59.8288L43.6353 55.6937L38.4778 50.2564C38.2425 49.7336 37.827 49.3164 37.3097 49.0836C36.7924 48.8507 36.2091 48.8183 35.6699 48.9924C35.1306 49.1665 34.6728 49.535 34.3827 50.0286C34.0927 50.5221 33.9903 51.1064 34.0952 51.6713Z" fill="#F3DCCF"/>
      <path d="M38.1937 54.3209C38.3018 54.1382 38.462 53.9932 38.6531 53.9054L40.4361 53.0873C40.6293 52.9991 40.8445 52.9734 41.0526 53.0136C41.2607 53.0538 41.4516 53.1579 41.5995 53.3119L46.7474 58.6941L59.2901 63.6398C59.6653 63.8659 59.9929 64.1649 60.2542 64.5196C60.5156 64.8744 60.7055 65.278 60.8133 65.7074C60.9211 66.1368 60.9445 66.5836 60.8822 67.0222C60.8199 67.4607 60.6732 67.8826 60.4504 68.2635C60.2276 68.6445 59.9332 68.9771 59.5838 69.2424C59.2344 69.5077 58.837 69.7004 58.4143 69.8096C57.9916 69.9188 57.5518 69.9423 57.1201 69.8788C56.6884 69.8152 56.2733 69.6659 55.8985 69.4393L47.8424 66.7422C45.3971 65.924 43.3277 64.2313 42.0189 61.9789L38.1904 55.3919C38.1169 55.2653 38.0704 55.1243 38.054 54.9782C38.0376 54.832 38.0517 54.684 38.0953 54.5438C38.1195 54.4658 38.1527 54.3911 38.1942 54.321L38.1937 54.3209Z" fill="#CAF031"/>
      <path opacity="0.1" d="M71.0504 74.6001L70.8215 82.0455L66.6025 89.4942L70.1253 81.194L71.0504 74.6001Z" fill="black"/>
      <path d="M62.6789 51.9203C63.2592 52.618 64.241 52.8147 65.1468 52.8954C66.9862 53.0593 69.661 52.7938 71.4586 52.3718C71.5869 53.6352 71.2371 54.9973 71.9695 56.0366C72.3129 54.7784 72.5125 53.4842 72.5645 52.1797C72.5867 51.621 72.578 51.0414 72.3542 50.5278C72.1305 50.0141 71.6424 49.5782 71.0803 49.5737C71.4979 49.2518 71.987 49.0394 72.5045 48.9551L70.7249 48.0465L71.182 47.5698L67.96 47.3695L68.8931 46.7672C67.4886 46.5713 66.0677 46.5259 64.6539 46.6318C63.9973 46.6809 63.3108 46.7748 62.7789 47.1613C62.247 47.5478 61.9396 48.3158 62.2699 48.8833C61.8564 48.9523 61.4671 49.1273 61.1389 49.3919C60.8107 49.6565 60.5544 50.0018 60.3943 50.3952C60.1571 51.006 60.1788 51.6845 60.252 52.3354C60.3734 53.3764 60.6115 54.3999 60.9618 55.386" fill="#3F3D56"/>
      <path d="M116.319 23.7442L38.1361 51.2397C37.7521 51.3743 37.3306 51.349 36.9642 51.1695C36.5977 50.9901 36.3162 50.671 36.1814 50.2823L29.3908 30.6371C29.2568 30.2482 29.2807 29.8217 29.457 29.4513C29.6334 29.0809 29.948 28.7969 30.3316 28.6614L108.515 1.16592C108.899 1.03139 109.32 1.05664 109.686 1.23612C110.053 1.4156 110.334 1.73466 110.469 2.12332L117.26 21.7685C117.394 22.1575 117.37 22.584 117.194 22.9543C117.017 23.3247 116.703 23.6088 116.319 23.7442Z" fill="white"/>
      <path d="M116.319 23.7442L38.1361 51.2397C37.7521 51.3743 37.3306 51.349 36.9642 51.1695C36.5977 50.9901 36.3162 50.671 36.1814 50.2823L29.3908 30.6371C29.2568 30.2482 29.2807 29.8217 29.457 29.4513C29.6334 29.0809 29.948 28.7969 30.3316 28.6614L108.515 1.16592C108.899 1.03139 109.32 1.05664 109.686 1.23612C110.053 1.4156 110.334 1.73466 110.469 2.12332L117.26 21.7685C117.394 22.1575 117.37 22.584 117.194 22.9543C117.017 23.3247 116.703 23.6088 116.319 23.7442ZM30.5345 29.2482C30.3042 29.3294 30.1155 29.4999 30.0096 29.7222C29.9038 29.9444 29.8895 30.2003 29.9699 30.4337L36.7605 50.079C36.8413 50.3122 37.0102 50.5037 37.2302 50.6115C37.4501 50.7192 37.703 50.7343 37.9334 50.6535L116.116 23.158C116.347 23.0767 116.535 22.9063 116.641 22.684C116.747 22.4617 116.761 22.2058 116.681 21.9724L109.89 2.32694C109.809 2.09367 109.64 1.90215 109.421 1.79443C109.201 1.68672 108.948 1.67161 108.717 1.75242L30.5345 29.2482Z" fill="#E6E6E6"/>
      <path d="M59.0707 32.9495C58.9409 32.9935 58.8211 33.0618 58.7183 33.1505C58.6154 33.2393 58.5314 33.3467 58.471 33.4666C58.4107 33.5865 58.3753 33.7167 58.3667 33.8495C58.3582 33.9824 58.3767 34.1155 58.4212 34.2411C58.4657 34.3667 58.5354 34.4824 58.6262 34.5816C58.717 34.6808 58.8272 34.7615 58.9504 34.8192C59.0737 34.8768 59.2076 34.9103 59.3445 34.9176C59.4815 34.925 59.6188 34.9061 59.7485 34.862L59.7519 34.8609L106.303 18.9811C106.564 18.8915 106.779 18.7051 106.9 18.4629C107.021 18.2206 107.038 17.9424 106.948 17.6892C106.858 17.436 106.668 17.2285 106.419 17.1124C106.17 16.9963 105.883 16.981 105.622 17.0698L59.0707 32.9495Z" fill="#E6E6E6"/>
      <path d="M57.7227 25.9448C57.5931 25.9906 57.4733 26.0656 57.37 26.1655C57.2667 26.2653 57.1821 26.3881 57.1208 26.5268C57.0595 26.6654 57.0228 26.8173 57.0129 26.9737C57.003 27.13 57.0199 27.2878 57.0628 27.4381C57.1057 27.5883 57.1737 27.728 57.2629 27.8493C57.3522 27.9705 57.4608 28.0709 57.5828 28.1447C57.7047 28.2184 57.8375 28.2641 57.9736 28.2792C58.1097 28.2943 58.2464 28.2784 58.3759 28.2324L58.3794 28.2312L78.3718 21.1045C78.6333 21.0118 78.8496 20.8024 78.9732 20.5224C79.0968 20.2424 79.1176 19.9147 79.031 19.6115C78.9444 19.3082 78.7575 19.0541 78.5114 18.9051C78.2652 18.7561 77.9801 18.7243 77.7186 18.8169L77.7151 18.8181L57.7227 25.9448Z" fill="#008080"/>
      <path d="M44.5969 43.1596C47.4894 42.8443 49.5749 40.2089 49.2549 37.2732C48.9349 34.3376 46.3306 32.2134 43.4381 32.5287C40.5455 32.844 38.4601 35.4794 38.7801 38.4151C39.1001 41.3507 41.7044 43.4749 44.5969 43.1596Z" fill="#008080"/>
      <path d="M44.2042 40.9271C44.0372 40.9862 43.8557 40.9885 43.6869 40.9338L43.6763 40.9304L41.4631 40.1891C41.3603 40.1548 41.2652 40.1003 41.1831 40.0287C41.101 39.9571 41.0336 39.8698 40.9847 39.7719C40.9358 39.6739 40.9064 39.5672 40.8982 39.4579C40.8899 39.3485 40.903 39.2386 40.9366 39.1345C40.9703 39.0305 41.0239 38.9342 41.0943 38.8512C41.1647 38.7683 41.2506 38.7003 41.3471 38.6511C41.4435 38.602 41.5487 38.5726 41.6564 38.5647C41.7642 38.5569 41.8725 38.5706 41.9752 38.6053L43.4095 39.0874L44.8595 34.6063C44.9274 34.3965 45.0748 34.223 45.2692 34.1238C45.4635 34.0246 45.689 34.008 45.8961 34.0775L45.8876 34.1066L45.8967 34.0773C46.1036 34.1471 46.275 34.2972 46.3733 34.4947C46.4716 34.6923 46.4888 34.921 46.4211 35.1309L44.7159 40.4021C44.6763 40.5236 44.6096 40.6341 44.521 40.7251C44.4324 40.816 44.3243 40.885 44.205 40.9266L44.2042 40.9271Z" fill="white"/>
      </svg>
      