<svg width="139" height="108" viewBox="0 0 139 108" fill="none" xmlns="http://www.w3.org/2000/svg">
      <g clip-path="url(#clip0_3058_5457)">
      <path d="M122.751 105.295L120.425 105.295L119.319 96.2437L122.751 96.2438L122.751 105.295Z" fill="#F3DCCF"/>
      <path d="M123.344 107.569L115.846 107.569V107.473C115.846 106.692 116.153 105.943 116.701 105.391C117.248 104.839 117.99 104.528 118.764 104.528H118.764L123.344 104.529L123.344 107.569Z" fill="#3F3D56"/>
      <path d="M133.014 99.5258L131.505 101.311L123.963 96.2851L126.191 93.6506L133.014 99.5258Z" fill="#F3DCCF"/>
      <path d="M135.114 100.547L130.247 106.303L130.174 106.241C129.586 105.734 129.221 105.011 129.16 104.233C129.098 103.454 129.346 102.683 129.849 102.089L129.849 102.089L132.822 98.5732L135.114 100.547Z" fill="#3F3D56"/>
      <path d="M106.239 60.7834L105.515 67.5199L134.777 67.0987L122.016 46.1167L111.596 45.739L106.239 60.7834Z" fill="#008080"/>
      <path opacity="0.28" d="M106.239 60.7834L105.515 67.5199L134.777 67.0987L122.016 46.1167L111.596 45.739L106.239 60.7834Z" fill="black"/>
      <path d="M111.993 61.9398L110.96 68.1036V73.6131L119.289 76.3566C119.289 76.3566 118.314 97.7566 119.614 99.1197L119.582 102.41L123.216 102.577L123.245 100.261L124.786 82.9523L125.693 70.2442L124.222 60.6094L111.993 61.9398Z" fill="#008080"/>
      <path d="M118.446 67.2456L110.96 73.6131C110.96 73.6131 110.522 85.1014 111.635 86.4487C112.59 87.6058 125.019 97.587 125.019 97.587C125.019 97.587 127.228 99.6316 128.466 99.6642C129.704 99.6968 131.144 97.0768 131.144 97.0768L128.277 94.8788C128.277 94.8788 120.849 87.883 118.644 85.1014C117.754 83.9787 117.754 83.8664 117.754 83.8664L118.058 79.1975L121.118 70.5326L118.446 67.2456Z" fill="#008080"/>
      <path d="M110.498 36.7453L107.271 36.4443L104.343 36.9367L98.1439 36.9387L97.6157 41.4725L103.273 42.75L104.652 42.0682L110.399 44.2776L110.498 36.7453Z" fill="#008080"/>
      <path d="M114.353 36.7312C114.353 36.7312 121.203 36.0836 122.761 37.3186C124.318 38.5536 127.656 63.0289 127.656 63.0289L114.353 63.7865L111.968 62.1307L112.645 49.9117L114.353 36.7312Z" fill="#CAF031"/>
      <path d="M116.444 36.5786L108.888 36.7459L101.843 68.8669L107.406 70.102L116.444 36.5786Z" fill="#008080"/>
      <path d="M121.816 36.3071L127.768 38.1869L127.43 51.3844L134.778 67.1629L126.14 68.0811L119.312 51.0432L121.816 36.3071Z" fill="#008080"/>
      <path d="M131.63 68.7657C131.839 68.5804 132.005 68.3511 132.116 68.0941C132.227 67.837 132.282 67.5585 132.275 67.2781C132.268 66.9976 132.2 66.7221 132.076 66.471C131.953 66.2198 131.776 65.9991 131.558 65.8243L132.756 61.6092L130.395 60.2502L128.786 66.2267C128.52 66.6149 128.403 67.0882 128.46 67.5571C128.516 68.026 128.74 68.4578 129.091 68.7708C129.441 69.0838 129.893 69.2561 130.361 69.2552C130.83 69.2542 131.281 69.0801 131.63 68.7657Z" fill="#F3DCCF"/>
      <path d="M124.319 38.5536L127.841 38.2454C127.841 38.2454 131.002 41.5822 131.722 44.1658C132.441 46.7495 133.22 54.8331 133.22 54.8331L132.895 66.6586L128.778 63.8376L128.502 53.6662L124.319 38.5536Z" fill="#008080"/>
      <path d="M123.469 32.6097C124.792 30.1684 123.903 27.1075 121.483 25.773C119.064 24.4385 116.031 25.3357 114.708 27.777C113.386 30.2182 114.275 33.2791 116.694 34.6136C119.113 35.9481 122.147 35.0509 123.469 32.6097Z" fill="#F3DCCF"/>
      <path d="M118.532 28.0901C117.877 27.9374 117.197 28.1067 116.533 28.2164C115.87 28.3261 115.139 28.3622 114.578 27.9887C114.163 27.7129 113.908 27.2565 113.669 26.8176C113.569 26.6608 113.503 26.4848 113.474 26.3008C113.446 25.9762 113.65 25.68 113.868 25.4389C114.877 24.3192 116.352 23.7064 117.84 23.5117C119.067 23.3272 120.32 23.4816 121.467 23.9586C122.596 24.4584 123.567 25.3737 124.011 26.5346C124.216 27.1288 124.343 27.747 124.391 28.3742C124.458 28.8356 124.467 29.3037 124.417 29.7673C124.357 30.111 124.267 30.4487 124.149 30.7766L123.414 33.0175C123.361 33.2293 123.262 33.4266 123.125 33.5952C123.054 33.6778 122.959 33.735 122.853 33.7584C122.747 33.7817 122.637 33.7699 122.539 33.7247C122.598 33.4813 122.606 33.2283 122.565 32.9813C122.542 32.8582 122.483 32.7449 122.396 32.6559C122.308 32.5669 122.196 32.5064 122.075 32.4822C121.803 32.4531 121.572 32.6652 121.315 32.7565C121.197 32.7917 121.074 32.8032 120.952 32.7903C120.829 32.7773 120.711 32.7403 120.603 32.6812C120.495 32.6221 120.4 32.5422 120.323 32.4459C120.245 32.3497 120.188 32.239 120.153 32.1203C120.146 32.0963 120.14 32.0721 120.135 32.0477C120.094 31.7915 120.162 31.5172 120.066 31.2766C119.953 30.9947 119.654 30.847 119.43 30.6445C119.225 30.4536 119.078 30.2077 119.007 29.9356C118.935 29.6634 118.943 29.3765 119.028 29.1084C119.088 28.9219 119.258 28.8371 119.224 28.6229C119.179 28.3418 118.768 28.1453 118.532 28.0901Z" fill="#3F3D56"/>
      <g filter="url(#filter0_d_3058_5457)">
      <path d="M58.4707 98.208H22.4956V58.4216H58.4707V98.208Z" fill="white"/>
      </g>
      <path d="M53.578 94.4504H46.0952V94.7566H53.578V94.4504Z" fill="#E6E6E6"/>
      <path d="M53.578 95.3689H46.0952V95.675H53.578V95.3689Z" fill="#E6E6E6"/>
      <path d="M53.578 96.2874H46.0952V96.5935H53.578V96.2874Z" fill="#E6E6E6"/>
      <path d="M40.4834 65.5366V68.7311C42.3618 68.7312 44.198 69.2932 45.7599 70.3463C47.3217 71.3993 48.539 72.8961 49.2579 74.6473C49.9767 76.3984 50.1648 78.3254 49.7983 80.1844C49.4319 82.0434 48.5273 83.7511 47.1991 85.0913L49.4377 87.3502C51.2086 85.5632 52.4147 83.2863 52.9033 80.8076C53.3919 78.3289 53.1411 75.7596 52.1827 73.4248C51.2242 71.0899 49.6012 69.0942 47.5187 67.6901C45.4363 66.286 42.9879 65.5366 40.4834 65.5366Z" fill="#CAF031"/>
      <path d="M49.4378 87.3504L47.1992 85.0916C45.5755 86.7304 43.4181 87.7198 41.1268 87.8766C38.8355 88.0333 36.5655 87.3468 34.7374 85.9441L32.8213 88.4883C35.2592 90.358 38.2859 91.2729 41.341 91.0637C44.3961 90.8545 47.2725 89.5353 49.4378 87.3504Z" fill="#F1F1F1"/>
      <path d="M30.9856 78.3147C30.9856 77.0562 31.2313 75.81 31.7086 74.6473C32.1859 73.4845 32.8854 72.428 33.7674 71.5381C34.6493 70.6482 35.6963 69.9423 36.8485 69.4607C38.0008 68.979 39.2358 68.7311 40.4831 68.7311V65.5366C37.8322 65.5366 35.2481 66.376 33.0951 67.9366C30.9421 69.4973 29.3287 71.7003 28.4825 74.2353C27.6362 76.7703 27.5996 79.5093 28.378 82.0664C29.1563 84.6234 30.7103 86.8695 32.8208 88.4881L34.737 85.9439C33.5703 85.051 32.6244 83.8974 31.9736 82.5738C31.3227 81.2501 30.9846 79.7924 30.9856 78.3147Z" fill="#F5F5F5"/>
      <g filter="url(#filter1_d_3058_5457)">
      <path d="M105.231 80.5909H73.3828V40.8044H105.231V80.5909Z" fill="white"/>
      </g>
      <path d="M83.702 65.1265H77.9692V75.5813H83.702V65.1265Z" fill="#F1F1F1"/>
      <path d="M91.9823 58.0115H86.2495V75.5814H91.9823V58.0115Z" fill="#F1F1F1"/>
      <path d="M100.263 49.7346H94.5303V75.5813H100.263V49.7346Z" fill="#DFDFDF"/>
      <path d="M102.174 75.8721H76.4404V45.5239H76.6951V75.5816H102.174V75.8721Z" fill="#008080"/>
      <path d="M98.1109 41.0785C99.2055 41.0785 100.093 40.1831 100.093 39.0786C100.093 37.974 99.2055 37.0786 98.1109 37.0786C97.0163 37.0786 96.1289 37.974 96.1289 39.0786C96.1289 40.1831 97.0163 41.0785 98.1109 41.0785Z" fill="#F3DCCF"/>
      </g>
      <g filter="url(#filter2_d_3058_5457)">
      <path d="M69.8927 42.5817H17.2769V5.67212H69.8927V42.5817Z" fill="white"/>
      </g>
      <path d="M65.8148 34.8466H23.1287C23.0933 34.8466 23.0593 34.8324 23.0342 34.8071C23.0092 34.7818 22.9951 34.7475 22.9951 34.7118V14.0667C22.9951 14.0309 23.0092 13.9966 23.0342 13.9714C23.0593 13.9461 23.0933 13.9319 23.1287 13.9319C23.1641 13.9319 23.1981 13.9461 23.2232 13.9714C23.2482 13.9966 23.2623 14.0309 23.2623 14.0667V34.577H65.8148C65.8324 34.5769 65.8498 34.5803 65.8661 34.5871C65.8824 34.5938 65.8971 34.6038 65.9096 34.6163C65.922 34.6288 65.9319 34.6437 65.9387 34.6601C65.9454 34.6764 65.9489 34.694 65.9489 34.7118C65.9489 34.7295 65.9454 34.7471 65.9387 34.7634C65.9319 34.7798 65.922 34.7947 65.9096 34.8072C65.8971 34.8198 65.8824 34.8297 65.8661 34.8364C65.8498 34.8432 65.8324 34.8466 65.8148 34.8466Z" fill="#E6E6E6"/>
      <path d="M32.2488 33.3634H28.3663C28.2612 33.3633 28.1604 33.3211 28.086 33.2461C28.0117 33.1711 27.9699 33.0694 27.9697 32.9633V27.5627C27.9699 27.4566 28.0117 27.3549 28.086 27.2799C28.1604 27.2049 28.2612 27.1627 28.3663 27.1626H32.2488C32.3539 27.1627 32.4547 27.2049 32.529 27.2799C32.6034 27.3549 32.6452 27.4566 32.6453 27.5627V32.9633C32.6452 33.0694 32.6034 33.1711 32.529 33.2461C32.4547 33.3211 32.3539 33.3633 32.2488 33.3634Z" fill="#F1F1F1"/>
      <path d="M39.3293 33.3635H35.4469C35.3417 33.3634 35.2409 33.3212 35.1666 33.2462C35.0922 33.1712 35.0504 33.0694 35.0503 32.9634V22.4404C35.0504 22.3343 35.0922 22.2326 35.1666 22.1576C35.2409 22.0826 35.3417 22.0404 35.4469 22.0403H39.3293C39.4345 22.0404 39.5352 22.0826 39.6096 22.1576C39.6839 22.2326 39.7258 22.3343 39.7259 22.4404V32.9634C39.7258 33.0694 39.6839 33.1712 39.6096 33.2462C39.5352 33.3212 39.4345 33.3634 39.3293 33.3635Z" fill="#F1F1F1"/>
      <path d="M46.4094 33.3634H42.5269C42.4218 33.3633 42.321 33.3211 42.2467 33.2461C42.1723 33.1711 42.1305 33.0694 42.1304 32.9633V27.5627C42.1305 27.4566 42.1723 27.3549 42.2467 27.2799C42.321 27.2049 42.4218 27.1627 42.5269 27.1626H46.4094C46.5145 27.1627 46.6153 27.2049 46.6897 27.2799C46.764 27.3549 46.8058 27.4566 46.806 27.5627V32.9633C46.8058 33.0694 46.764 33.1711 46.6897 33.2461C46.6153 33.3211 46.5145 33.3633 46.4094 33.3634Z" fill="#F1F1F1"/>
      <path d="M53.489 33.3636H49.6065C49.5038 33.3658 49.4044 33.3269 49.33 33.2553C49.2557 33.1837 49.2125 33.0853 49.21 32.9816V20.4004C49.2125 20.2967 49.2557 20.1983 49.33 20.1267C49.4044 20.0551 49.5038 20.0162 49.6065 20.0184H53.489C53.5917 20.0162 53.6912 20.0551 53.7655 20.1267C53.8398 20.1983 53.883 20.2967 53.8855 20.4004V32.9816C53.883 33.0853 53.8398 33.1837 53.7655 33.2553C53.6912 33.3269 53.5917 33.3658 53.489 33.3636Z" fill="#F1F1F1"/>
      <path d="M60.5696 33.3637H56.6871C56.5819 33.3636 56.4812 33.3214 56.4068 33.2464C56.3325 33.1714 56.2907 33.0697 56.2905 32.9636V16.779C56.2907 16.6729 56.3325 16.5712 56.4068 16.4962C56.4812 16.4212 56.5819 16.379 56.6871 16.3789H60.5696C60.6747 16.379 60.7755 16.4212 60.8498 16.4962C60.9242 16.5712 60.966 16.6729 60.9661 16.779V32.9636C60.966 33.0697 60.9242 33.1714 60.8498 33.2464C60.7755 33.3214 60.6747 33.3636 60.5696 33.3637Z" fill="#F1F1F1"/>
      <path d="M30.3079 25.5456C30.7505 25.5456 31.1094 25.1835 31.1094 24.7368C31.1094 24.2901 30.7505 23.928 30.3079 23.928C29.8652 23.928 29.5063 24.2901 29.5063 24.7368C29.5063 25.1835 29.8652 25.5456 30.3079 25.5456Z" fill="#E6E6E6"/>
      <path d="M37.3875 20.288C37.8301 20.288 38.189 19.9259 38.189 19.4792C38.189 19.0325 37.8301 18.6704 37.3875 18.6704C36.9448 18.6704 36.5859 19.0325 36.5859 19.4792C36.5859 19.9259 36.9448 20.288 37.3875 20.288Z" fill="#E6E6E6"/>
      <path d="M44.468 25.5456C44.9107 25.5456 45.2696 25.1835 45.2696 24.7368C45.2696 24.2901 44.9107 23.928 44.468 23.928C44.0254 23.928 43.6665 24.2901 43.6665 24.7368C43.6665 25.1835 44.0254 25.5456 44.468 25.5456Z" fill="#E6E6E6"/>
      <path d="M51.5481 17.7267C51.9908 17.7267 52.3496 17.3646 52.3496 16.9179C52.3496 16.4712 51.9908 16.1091 51.5481 16.1091C51.1054 16.1091 50.7466 16.4712 50.7466 16.9179C50.7466 17.3646 51.1054 17.7267 51.5481 17.7267Z" fill="#E6E6E6"/>
      <path d="M58.6282 14.7609C59.0709 14.7609 59.4297 14.3988 59.4297 13.9521C59.4297 13.5054 59.0709 13.1433 58.6282 13.1433C58.1855 13.1433 57.8267 13.5054 57.8267 13.9521C57.8267 14.3988 58.1855 14.7609 58.6282 14.7609Z" fill="#E6E6E6"/>
      <path d="M44.4848 24.9174L37.3878 19.5534L30.3877 24.8441L30.2275 24.6282L37.3878 19.2165L44.451 24.555L51.4701 16.8043L51.4983 16.7927L58.5783 13.9141L58.6782 14.1643L51.6262 17.0314L44.4848 24.9174Z" fill="#E6E6E6"/>
      <defs>
      <filter id="filter0_d_3058_5457" x="14.4956" y="53.4216" width="51.9751" height="55.7864" filterUnits="userSpaceOnUse" color-interpolation-filters="sRGB">
      <feFlood flood-opacity="0" result="BackgroundImageFix"/>
      <feColorMatrix in="SourceAlpha" type="matrix" values="0 0 0 0 0 0 0 0 0 0 0 0 0 0 0 0 0 0 127 0" result="hardAlpha"/>
      <feOffset dy="3"/>
      <feGaussianBlur stdDeviation="4"/>
      <feColorMatrix type="matrix" values="0 0 0 0 0 0 0 0 0 0 0 0 0 0 0 0 0 0 0.1 0"/>
      <feBlend mode="normal" in2="BackgroundImageFix" result="effect1_dropShadow_3058_5457"/>
      <feBlend mode="normal" in="SourceGraphic" in2="effect1_dropShadow_3058_5457" result="shape"/>
      </filter>
      <filter id="filter1_d_3058_5457" x="65.3828" y="35.8044" width="47.8486" height="55.7864" filterUnits="userSpaceOnUse" color-interpolation-filters="sRGB">
      <feFlood flood-opacity="0" result="BackgroundImageFix"/>
      <feColorMatrix in="SourceAlpha" type="matrix" values="0 0 0 0 0 0 0 0 0 0 0 0 0 0 0 0 0 0 127 0" result="hardAlpha"/>
      <feOffset dy="3"/>
      <feGaussianBlur stdDeviation="4"/>
      <feColorMatrix type="matrix" values="0 0 0 0 0 0 0 0 0 0 0 0 0 0 0 0 0 0 0.1 0"/>
      <feBlend mode="normal" in2="BackgroundImageFix" result="effect1_dropShadow_3058_5457"/>
      <feBlend mode="normal" in="SourceGraphic" in2="effect1_dropShadow_3058_5457" result="shape"/>
      </filter>
      <filter id="filter2_d_3058_5457" x="9.27686" y="0.672119" width="68.6157" height="52.9097" filterUnits="userSpaceOnUse" color-interpolation-filters="sRGB">
      <feFlood flood-opacity="0" result="BackgroundImageFix"/>
      <feColorMatrix in="SourceAlpha" type="matrix" values="0 0 0 0 0 0 0 0 0 0 0 0 0 0 0 0 0 0 127 0" result="hardAlpha"/>
      <feOffset dy="3"/>
      <feGaussianBlur stdDeviation="4"/>
      <feColorMatrix type="matrix" values="0 0 0 0 0 0 0 0 0 0 0 0 0 0 0 0 0 0 0.1 0"/>
      <feBlend mode="normal" in2="BackgroundImageFix" result="effect1_dropShadow_3058_5457"/>
      <feBlend mode="normal" in="SourceGraphic" in2="effect1_dropShadow_3058_5457" result="shape"/>
      </filter>
      <clipPath id="clip0_3058_5457">
      <rect width="139" height="98.1638" fill="white" transform="translate(0 9.59863)"/>
      </clipPath>
      </defs>
      </svg>
     