<svg width="140" height="118" viewBox="0 0 140 118" fill="none" xmlns="http://www.w3.org/2000/svg">
      <g filter="url(#filter0_d_3058_5557)">
      <path d="M99.429 20.5298C99.4236 23.5958 98.508 26.5914 96.798 29.1377C95.088 31.684 92.6603 33.6667 89.8221 34.835C86.9839 36.0033 83.8626 36.3048 80.8529 35.7013C77.8431 35.0978 75.0801 33.6164 72.9133 31.4446C70.7465 29.2727 69.2732 26.5078 68.6796 23.4996C68.0861 20.4914 68.399 17.375 69.5788 14.5444C70.7585 11.7138 72.7522 9.29624 75.3077 7.59735C77.8632 5.89847 80.8656 4.99459 83.9354 5.00002C85.9752 4.99835 87.9952 5.3993 89.8793 6.17982C91.7634 6.96035 93.4745 8.10507 94.9143 9.54819C96.3541 10.9913 97.4941 12.7044 98.2689 14.589C99.0437 16.4736 99.4379 18.4925 99.429 20.5298Z" fill="white"/>
      </g>
      <path d="M76.7146 15.4594C77.3564 13.4166 78.8158 11.5429 80.8342 10.8523C82.8527 10.1617 85.8084 11.2137 87.3258 12.7242C90.1016 15.4872 90.779 24.9791 88.8719 27.9787C88.4926 27.9586 87.1837 27.9438 86.7998 27.9294L86.2567 26.1215V27.9116C85.6451 27.8927 85.0287 27.8797 84.4075 27.8725C82.3247 27.8467 80.333 27.0154 78.8512 25.5533C77.3694 24.0913 76.5128 22.1123 76.4616 20.0326C76.4119 18.0429 76.4616 16.2645 76.7146 15.4594Z" fill="#2F2E41"/>
      <path d="M83.6783 22.2301C86.1213 22.2301 88.1017 20.2521 88.1017 17.8121C88.1017 15.3721 86.1213 13.394 83.6783 13.394C81.2353 13.394 79.2549 15.3721 79.2549 17.8121C79.2549 20.2521 81.2353 22.2301 83.6783 22.2301Z" fill="#F3DCCF"/>
      <path d="M79.8604 13.9319L84.9535 11.3848C85.9948 11.8534 86.8915 12.5918 87.5508 13.5232C88.2101 14.4547 88.6079 15.5453 88.7029 16.6821L88.8298 18.2009L86.6971 17.6586L86.4634 15.7166L86.1013 17.5072L85.117 17.257L85.1264 14.242L84.1415 17.2549L80.6262 16.4482L79.8604 13.9319Z" fill="#2F2E41"/>
      <path d="M95.4261 30.761C92.7371 33.8169 88.9527 35.6941 84.89 35.9874C80.8272 36.2806 76.8119 34.9664 73.7109 32.3284L75.0422 28.6182C75.3431 27.9592 75.8178 27.3944 76.4156 26.9845C77.0134 26.5745 77.7116 26.3347 78.4354 26.2909L79.2824 26.239L81.3019 24.4994C81.3019 24.4994 86.7433 24.3053 86.6626 24.2124L89.9586 26.1926L89.9559 26.1789L91.2516 26.2581C91.9755 26.3017 92.6738 26.5414 93.2716 26.9514C93.8694 27.3614 94.3441 27.9263 94.6448 28.5854L95.4261 30.761Z" fill="#CAF031"/>
      <path d="M86.0559 46.8462H85.1748V116.59H86.0559V46.8462Z" fill="#F1F1F1"/>
      <g filter="url(#filter1_d_3058_5557)">
      <path d="M39.6371 24.2641C39.6371 27.3302 38.7268 30.3274 37.0213 32.8767C35.3158 35.4261 32.8917 37.413 30.0556 38.5864C27.2195 39.7597 24.0987 40.0667 21.0879 39.4685C18.0771 38.8704 15.3115 37.3939 13.1408 35.2259C10.9701 33.0579 9.49186 30.2956 8.89297 27.2885C8.29408 24.2813 8.60145 21.1643 9.77621 18.3317C10.951 15.499 12.9404 13.0779 15.4928 11.3745C18.0452 9.67106 21.0461 8.76187 24.1159 8.76187C26.1567 8.7528 28.1791 9.14758 30.0663 9.92343C31.9535 10.6993 33.6682 11.8408 35.1113 13.2822C36.5543 14.7235 37.6973 16.436 38.4741 18.321C39.2509 20.2059 39.6461 22.2258 39.6371 24.2641Z" fill="white"/>
      </g>
      <path d="M30.4635 20.5549L30.3867 20.6932C31.0703 19.0106 30.4487 16.9372 29.2293 15.6685C28.0099 14.3998 26.3147 13.8197 24.6455 13.5896C23.4064 13.3713 22.1322 13.4702 20.9418 13.8771C19.2356 14.5336 17.932 16.0533 16.8436 17.6343C16.3457 18.3574 15.8562 19.1818 15.9058 20.0856C15.9519 20.9243 16.4503 21.6361 16.8585 22.3477C17.2668 23.0593 17.6077 23.9421 17.3147 24.7188C17.1401 25.1816 16.7711 25.5149 16.4717 25.8936C16.1724 26.2722 15.9261 26.7839 16.0707 27.2589C16.1349 27.4407 16.2452 27.6027 16.3908 27.7291C16.5365 27.8555 16.7125 27.9421 16.9016 27.9802C17.268 28.0413 17.6426 28.0324 18.0056 27.9541L27.5202 26.5183C28.1667 26.4208 28.78 26.1685 29.3079 25.783C29.8357 25.3975 30.2623 24.8903 30.5514 24.3045C30.8406 23.7187 30.9836 23.0718 30.9682 22.4189C30.9529 21.7661 30.7798 21.1265 30.4635 20.5549Z" fill="#2F2E41"/>
      <path d="M23.3872 26.4521C25.9564 26.4521 28.0391 24.3719 28.0391 21.8059C28.0391 19.2398 25.9564 17.1597 23.3872 17.1597C20.8181 17.1597 18.7354 19.2398 18.7354 21.8059C18.7354 24.3719 20.8181 26.4521 23.3872 26.4521Z" fill="#F3DCCF"/>
      <path d="M35.7708 34.5005C33.0818 37.5564 29.2974 39.4336 25.2347 39.7269C21.1719 40.0201 17.1567 38.7059 14.0557 36.0679L15.387 32.3577C15.6878 31.6987 16.1626 31.1339 16.7603 30.724C17.3581 30.314 18.0563 30.0742 18.7802 30.0304L19.6271 29.9785L21.6466 28.2389C21.6466 28.2389 27.088 28.0448 27.0073 27.9519L30.3034 29.9321L30.3006 29.9184L31.5963 29.9976C32.3202 30.0412 33.0185 30.2809 33.6163 30.6909C34.2141 31.1009 34.6889 31.6658 34.9895 32.3249L35.7708 34.5005Z" fill="#CAF031"/>
      <path d="M27.7995 17.4941C27.6794 16.8596 27.0315 16.5694 26.4764 16.4288C24.8662 16.0185 23.1913 15.9267 21.5458 16.1584C20.3463 16.3293 19.1183 16.706 18.248 17.6411C17.5462 18.4285 17.1485 19.4401 17.1265 20.4941C17.091 21.1243 17.2319 21.7519 17.5336 22.3065C17.6685 22.5648 17.8683 22.7835 18.1135 22.9413C18.3586 23.0991 18.6406 23.1905 18.9318 23.2066L18.9876 23.4004C20.1917 23.2067 21.3398 22.7554 22.3532 22.0774C23.3665 21.3995 24.2213 20.5109 24.859 19.4724C24.6026 20.387 24.0923 21.2104 23.387 21.8475C24.9638 21.2174 26.3345 20.1623 27.3463 18.7999C27.6226 18.4336 27.8908 17.9768 27.7995 17.4941Z" fill="#2F2E41"/>
      <path d="M25.8669 52.8174H24.3853V116.448H25.8669V52.8174Z" fill="#F1F1F1"/>
      <path d="M25.2175 58.3642C27.7207 58.3642 29.7499 56.3374 29.7499 53.8372C29.7499 51.3371 27.7207 49.3103 25.2175 49.3103C22.7143 49.3103 20.6851 51.3371 20.6851 53.8372C20.6851 56.3374 22.7143 58.3642 25.2175 58.3642Z" fill="#008080"/>
      <path d="M85.799 48.2697C88.3022 48.2697 90.3315 46.2429 90.3315 43.7427C90.3315 41.2426 88.3022 39.2158 85.799 39.2158C83.2958 39.2158 81.2666 41.2426 81.2666 43.7427C81.2666 46.2429 83.2958 48.2697 85.799 48.2697Z" fill="#008080"/>
      <path d="M121.836 115.718H11.8512L11.1606 116.59C11.1606 116.821 11.197 117.043 11.2618 117.206C11.3265 117.369 11.4144 117.461 11.5059 117.461H121.836C121.928 117.461 122.016 117.37 122.08 117.206C122.145 117.043 122.182 116.821 122.182 116.59C122.182 116.358 122.145 116.137 122.08 115.973C122.016 115.81 121.928 115.718 121.836 115.718Z" fill="#F1F1F1"/>
      <g filter="url(#filter2_d_3058_5557)">
      <path d="M54.862 54.0963C63.4341 54.0963 70.3831 47.1557 70.3831 38.5941C70.3831 30.0324 63.4341 23.0918 54.862 23.0918C46.2899 23.0918 39.3408 30.0324 39.3408 38.5941C39.3408 47.1557 46.2899 54.0963 54.862 54.0963Z" fill="white"/>
      </g>
      <path d="M54.4335 40.5144C57.1698 40.5144 59.388 38.2989 59.388 35.5659C59.388 32.8329 57.1698 30.6174 54.4335 30.6174C51.6972 30.6174 49.479 32.8329 49.479 35.5659C49.479 38.2989 51.6972 40.5144 54.4335 40.5144Z" fill="#F3DCCF"/>
      <path d="M66.5061 48.9658C63.8172 52.0217 60.0328 53.899 55.9701 54.1922C51.9073 54.4855 47.892 53.1712 44.791 50.5332L46.1223 46.823C46.4231 46.164 46.8979 45.5993 47.4957 45.1893C48.0935 44.7793 48.7917 44.5396 49.5155 44.4958L50.3624 44.4438L52.3819 42.7042C52.3819 42.7042 57.8234 42.5102 57.7426 42.4172L61.0387 44.3974L61.036 44.3837L62.3317 44.463C63.0555 44.5066 63.7539 44.7462 64.3517 45.1562C64.9495 45.5662 65.4242 46.1311 65.7249 46.7902L66.5061 48.9658Z" fill="#CAF031"/>
      <path d="M59.6591 32.4972C59.2404 31.0005 58.2892 29.7079 56.984 28.862C55.9438 28.1975 54.6458 27.8583 53.4674 28.2097C52.289 28.5611 51.3133 29.7161 51.3905 30.9641C51.1722 30.9068 50.9422 30.9117 50.7265 30.9782C50.5108 31.0448 50.3181 31.1703 50.1702 31.3405C49.8745 31.6891 49.6689 32.1048 49.5715 32.5512C49.1933 33.9505 49.2184 35.4279 49.6437 36.8135L49.6203 37.0124C50.1952 36.9174 50.6313 36.4247 50.9025 35.8998C51.1737 35.3749 51.3297 34.7925 51.6236 34.2804C51.9175 33.7683 52.4056 33.3116 52.9878 33.2956L52.9365 34.1845C53.4374 33.9267 53.9383 33.6689 54.4392 33.4112C54.3201 33.6958 54.2009 33.9805 54.0818 34.2652C54.5193 34.0826 54.9567 33.8999 55.3942 33.7173C55.3453 33.9911 55.2964 34.2648 55.2475 34.5385C55.3622 34.3009 55.524 34.089 55.723 33.9156C55.9221 33.7423 56.1543 33.611 56.4056 33.5299C56.6569 33.4487 56.9221 33.4193 57.1851 33.4435C57.4481 33.4676 57.7035 33.5448 57.9357 33.6704C58.4589 34.022 58.836 34.5518 58.9965 35.1608C59.1554 35.7684 59.2406 36.3929 59.2505 37.0209C59.9265 35.611 60.0715 34.0052 59.6591 32.4972Z" fill="#2F2E41"/>
      <path d="M54.7419 66.1353H53.2603V116.448H54.7419V66.1353Z" fill="#F1F1F1"/>
      <path d="M54.093 70.9425C56.5962 70.9425 58.6254 68.9158 58.6254 66.4156C58.6254 63.9154 56.5962 61.8887 54.093 61.8887C51.5898 61.8887 49.5605 63.9154 49.5605 66.4156C49.5605 68.9158 51.5898 70.9425 54.093 70.9425Z" fill="#008080"/>
      <g filter="url(#filter3_d_3058_5557)">
      <path d="M116.209 48.1676C124.781 48.1676 131.73 41.227 131.73 32.6653C131.73 24.1037 124.781 17.1631 116.209 17.1631C107.637 17.1631 100.688 24.1037 100.688 32.6653C100.688 41.227 107.637 48.1676 116.209 48.1676Z" fill="white"/>
      </g>
      <path d="M111.947 26.8488C113.157 26.8488 114.138 25.8689 114.138 24.6601C114.138 23.4513 113.157 22.4714 111.947 22.4714C110.736 22.4714 109.755 23.4513 109.755 24.6601C109.755 25.8689 110.736 26.8488 111.947 26.8488Z" fill="#2F2E41"/>
      <path d="M115.453 35.1654C118.519 35.1654 121.004 32.683 121.004 29.6208C121.004 26.5586 118.519 24.0762 115.453 24.0762C112.387 24.0762 109.901 26.5586 109.901 29.6208C109.901 32.683 112.387 35.1654 115.453 35.1654Z" fill="#2F2E41"/>
      <path d="M115.912 35.1638C118.403 35.1638 120.423 33.1466 120.423 30.6582C120.423 28.1698 118.403 26.1526 115.912 26.1526C113.421 26.1526 111.401 28.1698 111.401 30.6582C111.401 33.1466 113.421 35.1638 115.912 35.1638Z" fill="#F3DCCF"/>
      <path d="M118.976 26.0654C118.185 25.584 117.28 25.3237 116.354 25.3115C115.428 25.2993 114.516 25.5357 113.713 25.9961C112.911 26.4564 112.246 27.1237 111.79 27.9283C111.334 28.7329 111.102 29.6451 111.12 30.5696C113.418 31.146 115.833 31.5871 118.284 30.7075L118.863 29.2924L119.205 30.7085C119.951 31.0133 120.7 31.2711 121.448 30.7056C121.479 29.7837 121.266 28.8699 120.832 28.0556C120.399 27.2413 119.758 26.555 118.976 26.0654Z" fill="#2F2E41"/>
      <path d="M109.906 18.7185C109.137 18.3905 108.291 18.2841 107.464 18.4113C106.638 18.5385 105.863 18.8943 105.228 19.4383C104.607 19.9979 104.135 20.7021 103.852 21.4884C103.57 22.2746 103.487 23.1184 103.61 23.9445C103.859 25.6248 104.881 27.0717 105.824 28.4853C106.767 29.899 107.688 31.448 107.687 33.1465C107.686 34.3698 107.2 35.5429 106.334 36.4086C105.469 37.2742 104.295 37.7617 103.07 37.7641C104.507 38.3822 106.008 39.0125 107.571 38.9392C109.135 38.8659 110.773 37.8621 111.028 36.3198C111.212 35.2085 110.666 34.1248 110.211 33.0944C109.469 31.4152 108.933 29.6529 108.614 27.8455C108.462 26.9829 108.363 26.076 108.645 25.2465C108.869 24.6318 109.285 24.1053 109.832 23.7448C110.378 23.3842 111.026 23.2085 111.68 23.2437L112.197 22.7796C112.285 21.9488 112.112 21.1111 111.702 20.3832C111.291 19.6553 110.664 19.0734 109.906 18.7185Z" fill="#2F2E41"/>
      <path d="M127.887 43.0381C125.199 46.094 121.414 47.9712 117.351 48.2645C113.289 48.5577 109.273 47.2435 106.172 44.6055L107.504 40.8953C107.804 40.2363 108.279 39.6715 108.877 39.2616C109.475 38.8516 110.173 38.6118 110.897 38.568L111.744 38.5161L113.763 36.7765C113.763 36.7765 119.205 36.5824 119.124 36.4895L122.42 38.4696L122.417 38.456L123.713 38.5352C124.437 38.5788 125.135 38.8185 125.733 39.2285C126.331 39.6385 126.806 40.2034 127.106 40.8625L127.887 43.0381Z" fill="#CAF031"/>
      <path d="M118.155 58.7366H116.673V116.448H118.155V58.7366Z" fill="#F1F1F1"/>
      <path d="M117.506 62.8038C120.009 62.8038 122.038 60.7771 122.038 58.2769C122.038 55.7768 120.009 53.75 117.506 53.75C115.002 53.75 112.973 55.7768 112.973 58.2769C112.973 60.7771 115.002 62.8038 117.506 62.8038Z" fill="#008080"/>
      <defs>
      <filter id="filter0_d_3058_5557" x="60.3867" y="0" width="47.0425" height="47.0046" filterUnits="userSpaceOnUse" color-interpolation-filters="sRGB">
      <feFlood flood-opacity="0" result="BackgroundImageFix"/>
      <feColorMatrix in="SourceAlpha" type="matrix" values="0 0 0 0 0 0 0 0 0 0 0 0 0 0 0 0 0 0 127 0" result="hardAlpha"/>
      <feOffset dy="3"/>
      <feGaussianBlur stdDeviation="4"/>
      <feColorMatrix type="matrix" values="0 0 0 0 0 0 0 0 0 0 0 0 0 0 0 0 0 0 0.1 0"/>
      <feBlend mode="normal" in2="BackgroundImageFix" result="effect1_dropShadow_3058_5557"/>
      <feBlend mode="normal" in="SourceGraphic" in2="effect1_dropShadow_3058_5557" result="shape"/>
      </filter>
      <filter id="filter1_d_3058_5557" x="0.594727" y="3.76172" width="47.0425" height="47.0046" filterUnits="userSpaceOnUse" color-interpolation-filters="sRGB">
      <feFlood flood-opacity="0" result="BackgroundImageFix"/>
      <feColorMatrix in="SourceAlpha" type="matrix" values="0 0 0 0 0 0 0 0 0 0 0 0 0 0 0 0 0 0 127 0" result="hardAlpha"/>
      <feOffset dy="3"/>
      <feGaussianBlur stdDeviation="4"/>
      <feColorMatrix type="matrix" values="0 0 0 0 0 0 0 0 0 0 0 0 0 0 0 0 0 0 0.1 0"/>
      <feBlend mode="normal" in2="BackgroundImageFix" result="effect1_dropShadow_3058_5557"/>
      <feBlend mode="normal" in="SourceGraphic" in2="effect1_dropShadow_3058_5557" result="shape"/>
      </filter>
      <filter id="filter2_d_3058_5557" x="31.3408" y="18.0918" width="47.0425" height="47.0046" filterUnits="userSpaceOnUse" color-interpolation-filters="sRGB">
      <feFlood flood-opacity="0" result="BackgroundImageFix"/>
      <feColorMatrix in="SourceAlpha" type="matrix" values="0 0 0 0 0 0 0 0 0 0 0 0 0 0 0 0 0 0 127 0" result="hardAlpha"/>
      <feOffset dy="3"/>
      <feGaussianBlur stdDeviation="4"/>
      <feColorMatrix type="matrix" values="0 0 0 0 0 0 0 0 0 0 0 0 0 0 0 0 0 0 0.1 0"/>
      <feBlend mode="normal" in2="BackgroundImageFix" result="effect1_dropShadow_3058_5557"/>
      <feBlend mode="normal" in="SourceGraphic" in2="effect1_dropShadow_3058_5557" result="shape"/>
      </filter>
      <filter id="filter3_d_3058_5557" x="92.6875" y="12.1631" width="47.0425" height="47.0046" filterUnits="userSpaceOnUse" color-interpolation-filters="sRGB">
      <feFlood flood-opacity="0" result="BackgroundImageFix"/>
      <feColorMatrix in="SourceAlpha" type="matrix" values="0 0 0 0 0 0 0 0 0 0 0 0 0 0 0 0 0 0 127 0" result="hardAlpha"/>
      <feOffset dy="3"/>
      <feGaussianBlur stdDeviation="4"/>
      <feColorMatrix type="matrix" values="0 0 0 0 0 0 0 0 0 0 0 0 0 0 0 0 0 0 0.1 0"/>
      <feBlend mode="normal" in2="BackgroundImageFix" result="effect1_dropShadow_3058_5557"/>
      <feBlend mode="normal" in="SourceGraphic" in2="effect1_dropShadow_3058_5557" result="shape"/>
      </filter>
      </defs>
      </svg>
      