<svg width="131" height="111" viewBox="0 0 131 111" fill="none" xmlns="http://www.w3.org/2000/svg">
      <path d="M119.522 3.85498H19.3188V64.5837H119.522V3.85498Z" fill="#F1F1F1"/>
      <path d="M116.657 9.06299H22.1841V59.7309H116.657V9.06299Z" fill="white"/>
      <path d="M119.479 0.346191H19.2759V5.78317H119.479V0.346191Z" fill="#E6E6E6"/>
      <path d="M22.4394 3.86896C22.8752 3.86896 23.2284 3.41779 23.2284 2.86124C23.2284 2.30469 22.8752 1.85352 22.4394 1.85352C22.0036 1.85352 21.6504 2.30469 21.6504 2.86124C21.6504 3.41779 22.0036 3.86896 22.4394 3.86896Z" fill="white"/>
      <path d="M25.434 3.86896C25.8698 3.86896 26.223 3.41779 26.223 2.86124C26.223 2.30469 25.8698 1.85352 25.434 1.85352C24.9983 1.85352 24.645 2.30469 24.645 2.86124C24.645 3.41779 24.9983 3.86896 25.434 3.86896Z" fill="white"/>
      <path d="M28.4291 3.86896C28.8649 3.86896 29.2181 3.41779 29.2181 2.86124C29.2181 2.30469 28.8649 1.85352 28.4291 1.85352C27.9934 1.85352 27.6401 2.30469 27.6401 2.86124C27.6401 3.41779 27.9934 3.86896 28.4291 3.86896Z" fill="white"/>
      <path d="M27.7089 41.6611C27.5994 41.6616 27.4945 41.7176 27.4171 41.8167C27.3398 41.9158 27.2964 42.05 27.2964 42.1899C27.2964 42.3298 27.3398 42.4641 27.4171 42.5632C27.4945 42.6623 27.5994 42.7182 27.7089 42.7187H50.4272C50.5367 42.7182 50.6417 42.6623 50.719 42.5632C50.7963 42.4641 50.8397 42.3298 50.8397 42.1899C50.8397 42.05 50.7963 41.9158 50.719 41.8167C50.6417 41.7176 50.5367 41.6616 50.4272 41.6611H27.7089Z" fill="#F1F1F1"/>
      <path d="M27.7089 44.8342C27.5994 44.8347 27.4945 44.8907 27.4171 44.9898C27.3398 45.0889 27.2964 45.2231 27.2964 45.363C27.2964 45.5029 27.3398 45.6371 27.4171 45.7363C27.4945 45.8354 27.5994 45.8913 27.7089 45.8918H39.3071C39.4166 45.8913 39.5215 45.8354 39.5989 45.7363C39.6762 45.6371 39.7196 45.5029 39.7196 45.363C39.7196 45.2231 39.6762 45.0889 39.5989 44.9898C39.5215 44.8907 39.4166 44.8347 39.3071 44.8342H27.7089Z" fill="#F1F1F1"/>
      <path d="M50.4563 50.8248H41.8264C41.7146 50.8247 41.6074 50.7679 41.5284 50.6669C41.4494 50.566 41.4049 50.4291 41.4048 50.2864V48.5204C41.4049 48.3776 41.4494 48.2408 41.5284 48.1398C41.6074 48.0389 41.7146 47.9821 41.8264 47.9819H50.4563C50.568 47.9821 50.6752 48.0389 50.7542 48.1398C50.8333 48.2408 50.8777 48.3776 50.8778 48.5204V50.2864C50.8777 50.4291 50.8333 50.566 50.7542 50.6669C50.6752 50.7679 50.568 50.8247 50.4563 50.8248Z" fill="#008080"/>
      <path d="M50.4563 36.6847H41.8264C41.7146 36.6845 41.6074 36.6278 41.5284 36.5268C41.4494 36.4259 41.4049 36.289 41.4048 36.1462V34.3803C41.4049 34.2375 41.4494 34.1006 41.5284 33.9997C41.6074 33.8987 41.7146 33.842 41.8264 33.8418H50.4563C50.568 33.842 50.6752 33.8987 50.7542 33.9997C50.8333 34.1006 50.8777 34.2375 50.8778 34.3803V36.1462C50.8777 36.289 50.8333 36.4259 50.7542 36.5268C50.6752 36.6278 50.568 36.6845 50.4563 36.6847Z" fill="#008080"/>
      <path d="M65.6673 17.9238C65.5242 17.9241 65.387 17.9969 65.2859 18.1263C65.1847 18.2557 65.1279 18.431 65.1279 18.6138C65.1279 18.7966 65.1847 18.972 65.2859 19.1013C65.387 19.2307 65.5242 19.3035 65.6673 19.3038H110.851C110.994 19.3035 111.131 19.2307 111.232 19.1013C111.333 18.972 111.39 18.7966 111.39 18.6138C111.39 18.431 111.333 18.2557 111.232 18.1263C111.131 17.9969 110.994 17.9241 110.851 17.9238H65.6673Z" fill="#F1F1F1"/>
      <path d="M65.6673 22.0642C65.5242 22.0645 65.387 22.1373 65.2859 22.2667C65.1847 22.396 65.1279 22.5714 65.1279 22.7542C65.1279 22.937 65.1847 23.1123 65.2859 23.2417C65.387 23.3711 65.5242 23.4439 65.6673 23.4442H96.3405C96.4837 23.4439 96.6209 23.3711 96.722 23.2417C96.8231 23.1123 96.8799 22.937 96.8799 22.7542C96.8799 22.5714 96.8231 22.396 96.722 22.2667C96.6209 22.1373 96.4837 22.0645 96.3405 22.0642H65.6673Z" fill="#F1F1F1"/>
      <path d="M65.6673 26.1108C65.5242 26.1111 65.387 26.1839 65.2859 26.3133C65.1847 26.4427 65.1279 26.618 65.1279 26.8008C65.1279 26.9836 65.1847 27.159 65.2859 27.2883C65.387 27.4177 65.5242 27.4905 65.6673 27.4908H110.851C110.994 27.4905 111.131 27.4177 111.232 27.2883C111.333 27.159 111.39 26.9836 111.39 26.8008C111.39 26.618 111.333 26.4427 111.232 26.3133C111.131 26.1839 110.994 26.1111 110.851 26.1108H65.6673Z" fill="#F1F1F1"/>
      <path d="M65.6673 30.2512C65.5242 30.2515 65.387 30.3243 65.2859 30.4537C65.1847 30.5831 65.1279 30.7584 65.1279 30.9412C65.1279 31.124 65.1847 31.2994 65.2859 31.4287C65.387 31.5581 65.5242 31.6309 65.6673 31.6312H96.3405C96.4837 31.6309 96.6209 31.5581 96.722 31.4287C96.8231 31.2994 96.8799 31.124 96.8799 30.9412C96.8799 30.7584 96.8231 30.5831 96.722 30.4537C96.6209 30.3243 96.4837 30.2515 96.3405 30.2512H65.6673Z" fill="#F1F1F1"/>
      <path d="M96.1149 37.0809H87.4851C87.3733 37.0808 87.2661 37.024 87.1871 36.923C87.1081 36.8221 87.0636 36.6852 87.0635 36.5425V34.7765C87.0636 34.6337 87.1081 34.4969 87.1871 34.3959C87.2661 34.295 87.3733 34.2382 87.4851 34.238H96.1149C96.2267 34.2382 96.3339 34.295 96.4129 34.3959C96.492 34.4969 96.5364 34.6337 96.5365 34.7765V36.5425C96.5364 36.6852 96.492 36.8221 96.4129 36.923C96.3339 37.024 96.2267 37.0808 96.1149 37.0809Z" fill="#008080"/>
      <path d="M37.4939 18.6711C37.3405 18.6718 37.2165 18.9261 37.2168 19.2392C37.2171 19.5514 37.341 19.8043 37.4939 19.8049H50.583C50.7364 19.8043 50.8604 19.55 50.8601 19.2369C50.8598 18.9247 50.7359 18.6718 50.583 18.6711H37.4939Z" fill="#E4E4E4"/>
      <path d="M37.4939 21.9565C37.3405 21.9572 37.2165 22.2115 37.2168 22.5246C37.2171 22.8368 37.341 23.0897 37.4939 23.0903H50.583C50.7364 23.0897 50.8604 22.8354 50.8601 22.5223C50.8598 22.2101 50.7359 21.9572 50.583 21.9565H37.4939Z" fill="#E4E4E4"/>
      <path d="M37.4939 25.2014C37.3405 25.202 37.2165 25.4564 37.2168 25.7694C37.2171 26.0817 37.341 26.3346 37.4939 26.3352H43.1262C43.2795 26.3346 43.4035 26.0803 43.4032 25.7672C43.4029 25.455 43.2791 25.202 43.1262 25.2014H37.4939Z" fill="#E4E4E4"/>
      <path d="M29.9894 27.2508C32.5251 27.2508 34.5808 25.1858 34.5808 22.6386C34.5808 20.0913 32.5251 18.0264 29.9894 18.0264C27.4536 18.0264 25.3979 20.0913 25.3979 22.6386C25.3979 25.1858 27.4536 27.2508 29.9894 27.2508Z" fill="#F1F1F1"/>
      <path d="M127.316 70.6678C127.13 70.4466 126.995 70.1875 126.921 69.9088C126.847 69.6301 126.835 69.3386 126.886 69.0548C126.937 68.7711 127.051 68.502 127.218 68.2664C127.386 68.0309 127.603 67.8347 127.855 67.6916L126.555 60.8035L129.937 62.214L130.653 68.5389C130.867 68.9753 130.913 69.4745 130.781 69.9419C130.649 70.4093 130.349 70.8124 129.937 71.0748C129.526 71.3372 129.032 71.4408 128.549 71.3657C128.066 71.2907 127.627 71.0424 127.316 70.6678Z" fill="#F3DCCF"/>
      <path d="M96.867 28.2679C96.8297 28.5538 96.8561 28.8443 96.9441 29.1191C97.0322 29.3938 97.1799 29.646 97.3767 29.8579C97.5736 30.0699 97.8149 30.2364 98.0836 30.3457C98.3523 30.4551 98.6419 30.5046 98.9319 30.4908L101.562 36.9942L103.651 34.0008L100.833 28.284C100.778 27.8018 100.546 27.3566 100.182 27.0327C99.8175 26.7088 99.3463 26.5289 98.8574 26.5269C98.3685 26.5249 97.8959 26.701 97.529 27.0219C97.1622 27.3428 96.9266 27.7861 96.867 28.2679Z" fill="#F3DCCF"/>
      <path d="M126.522 106.483H124.1L122.948 97.2087L126.522 97.2089L126.522 106.483Z" fill="#F3DCCF"/>
      <path d="M127.139 108.813L119.331 108.813V108.715C119.331 107.914 119.651 107.147 120.221 106.581C120.791 106.015 121.564 105.697 122.37 105.697H122.37L127.139 105.697L127.139 108.813Z" fill="#2F2E41"/>
      <path d="M118.597 106.406L116.288 105.681L118.009 96.4941L121.416 97.5653L118.597 106.406Z" fill="#F3DCCF"/>
      <path d="M118.477 110.037L111.033 107.697L111.063 107.604C111.306 106.841 111.844 106.205 112.56 105.836C113.275 105.468 114.109 105.396 114.877 105.638L119.424 107.067L118.477 110.037Z" fill="#2F2E41"/>
      <path d="M115.728 61.1573C115.728 61.1573 112.135 66.7587 113.405 71.7581C114.675 76.7574 116.057 86.367 116.057 86.367L122.942 102.633L128.074 102.425L122.977 83.2469L123.179 70.4239C123.179 70.4239 126.721 64.2955 126.031 62.3877C125.341 60.48 115.728 61.1573 115.728 61.1573Z" fill="#008080"/>
      <path d="M127.467 63.1607C127.467 63.1607 127.91 68.7176 126.527 71.0709C125.144 73.4243 123.671 82.3814 123.671 82.3814L121.321 100.296L116.453 98.7229L120.604 78.6522L123.866 62.8643L127.467 63.1607Z" fill="#008080"/>
      <path d="M129.194 36.2608L125.396 33.6689L119.616 33.5022L117.603 35.4613L114.532 37.0186L114.247 62.3885C114.247 62.3885 123.445 66.7656 128.394 64.6528L130.774 44.8898C131.762 40.9675 129.194 36.2608 129.194 36.2608Z" fill="#CAF031"/>
      <path d="M115.302 43.7986H105.171L98.5151 32.4237L102.843 30.7217L106.509 37.1949L111.814 36.7183L115.126 36.5592C115.657 36.5337 116.187 36.6237 116.679 36.8228C117.171 37.022 117.614 37.3255 117.975 37.7121C118.337 38.0987 118.609 38.5591 118.773 39.061C118.937 39.563 118.988 40.0944 118.923 40.6181C118.814 41.4953 118.385 42.3026 117.719 42.8883C117.052 43.474 116.193 43.7977 115.302 43.7986Z" fill="#CAF031"/>
      <path d="M122.977 31.4127C125.744 31.4127 127.988 29.1851 127.988 26.4373C127.988 23.6895 125.744 21.4619 122.977 21.4619C120.209 21.4619 117.965 23.6895 117.965 26.4373C117.965 29.1851 120.209 31.4127 122.977 31.4127Z" fill="#F3DCCF"/>
      <path d="M129.015 25.3057C128.861 24.2134 128.116 23.1763 127.056 22.8453C126.635 21.6317 125.52 20.7382 124.288 20.3487C123.147 19.9875 121.918 20.0126 120.793 20.4199C119.668 20.8273 118.711 21.5938 118.073 22.5994C117.978 22.7465 117.688 23.1081 117.696 23.2837C117.707 23.5068 118.05 23.7371 118.223 23.8777C118.651 24.206 119.113 24.4888 119.6 24.7214C121.402 25.6489 120.802 27.1066 120.778 28.7585C120.766 29.5612 121.036 30.2466 121.725 30.7051C122.72 31.3668 124.144 31.1035 125.227 30.838C126.455 30.5366 127.477 29.4652 128.177 28.4321C128.798 27.5172 129.169 26.398 129.015 25.3057Z" fill="#2F2E41"/>
      <path d="M129.05 42.7378L131 63.9735L124.735 63.6399L129.05 42.7378Z" fill="#CAF031"/>
      <path d="M3.35878 104.226H5.16438L6.02341 97.3115H3.3584L3.35878 104.226Z" fill="#F3DCCF"/>
      <path d="M2.89844 103.641L6.45446 103.641C7.05547 103.641 7.63201 103.878 8.05699 104.3C8.48197 104.722 8.72074 105.294 8.72078 105.891V105.964L2.89854 105.964L2.89844 103.641Z" fill="#2F2E41"/>
      <path d="M20.0023 104.226H21.8079L22.667 97.3115H20.002L20.0023 104.226Z" fill="#F3DCCF"/>
      <path d="M19.5415 103.641L23.0975 103.641C23.6985 103.641 24.2751 103.878 24.7 104.3C25.125 104.722 25.3638 105.294 25.3638 105.891V105.964L19.5416 105.964L19.5415 103.641Z" fill="#2F2E41"/>
      <path d="M17.8214 48.6755L18.9996 56.133L7.80615 56.2793L9.27889 49.1142L17.8214 48.6755Z" fill="#F3DCCF"/>
      <path d="M18.6753 54.3125L22.2404 63.7371L22.6822 102.794H19.6629L12.446 71.414L5.81823 101.975H2.87256L4.93453 67.6121C4.93453 67.6121 4.32648 60.7151 7.43835 56.6452L8.19581 54.4726L18.6753 54.3125Z" fill="#008080"/>
      <path d="M3.38306 61.6594C3.69472 61.5751 3.98398 61.4239 4.23044 61.2166C4.47691 61.0093 4.67459 60.7508 4.80957 60.4595C4.94454 60.1681 5.01353 59.8509 5.01166 59.5302C5.0098 59.2095 4.93713 58.8931 4.79878 58.6033L9.5607 43.1898L6.05812 42.5005L1.70289 57.6089C1.22791 57.8719 0.866619 58.2988 0.687468 58.8086C0.508316 59.3184 0.523753 59.8758 0.730856 60.3751C0.937959 60.8743 1.32234 61.2808 1.81115 61.5176C2.29997 61.7543 2.85927 61.8047 3.38306 61.6594Z" fill="#F3DCCF"/>
      <path d="M9.66312 52.794C9.59777 52.794 9.53259 52.7876 9.46849 52.775C9.25296 52.7321 9.05748 52.6205 8.91189 52.457C8.7663 52.2935 8.67861 52.0872 8.66222 51.8696C8.5515 50.3645 8.00288 47.7447 7.03162 44.0828C6.70373 42.8382 6.77635 41.523 7.23929 40.3214C7.70223 39.1199 8.53229 38.0923 9.61309 37.3827C10.6939 36.6731 11.9713 36.3171 13.2661 36.3645C14.561 36.412 15.8085 36.8606 16.8336 37.6473C17.49 38.1465 18.0379 38.7725 18.4442 39.4874C18.8504 40.2024 19.1068 40.9916 19.1977 41.8075C19.6804 46.028 18.7704 50.2655 18.3567 51.8915C18.3024 52.1037 18.1794 52.2924 18.0067 52.4287C17.834 52.565 17.6211 52.6413 17.4006 52.6459L9.68458 52.7938C9.67741 52.7939 9.67029 52.794 9.66312 52.794Z" fill="#CAF031"/>
      <path d="M31.2204 39.255C31.1741 39.3582 31.136 39.4649 31.1066 39.574L21.4483 42.8324L19.5821 41.2137L16.7534 43.6907L19.7768 46.875C20.021 47.1322 20.3427 47.3039 20.6936 47.3642C21.0445 47.4244 21.4055 47.3701 21.7227 47.2093L32.0576 41.9681C32.4313 42.1957 32.866 42.305 33.3038 42.2813C33.7416 42.2577 34.1618 42.1023 34.5085 41.8358C34.8551 41.5692 35.1118 41.2043 35.2445 40.7894C35.3771 40.3744 35.3794 39.9293 35.2509 39.5131C35.1225 39.0969 34.8695 38.7293 34.5256 38.4594C34.1816 38.1894 33.763 38.0298 33.3255 38.0018C32.888 37.9737 32.4522 38.0786 32.0762 38.3025C31.7001 38.5264 31.4017 38.8586 31.2204 39.255Z" fill="#F3DCCF"/>
      <path d="M21.1115 43.0104L17.5906 46.0635C17.4904 46.1504 17.3726 46.2148 17.2451 46.2524C17.1176 46.2899 16.9834 46.2998 16.8517 46.2812C16.72 46.2627 16.5939 46.2162 16.4819 46.1448C16.37 46.0735 16.2748 45.9791 16.2029 45.868L13.6846 41.9746C13.2393 41.4633 13.0166 40.7975 13.0652 40.1233C13.1138 39.4491 13.4298 38.8216 13.9438 38.3785C14.4579 37.9353 15.1281 37.7127 15.8072 37.7596C16.4864 37.8064 17.1191 38.1188 17.5666 38.6282L21.103 41.6189C21.2042 41.7046 21.2857 41.8109 21.3418 41.9307C21.3979 42.0504 21.4273 42.1807 21.4281 42.3128C21.429 42.4448 21.4011 42.5755 21.3464 42.6959C21.2918 42.8163 21.2116 42.9236 21.1115 43.0104Z" fill="#CAF031"/>
      <path d="M9.00407 47.1363L4.65305 45.4392C4.52925 45.3909 4.41739 45.3167 4.32509 45.2216C4.23278 45.1266 4.1622 45.0128 4.11815 44.8882C4.0741 44.7636 4.05762 44.6311 4.06982 44.4996C4.08203 44.3681 4.12264 44.2407 4.18888 44.1262L6.51033 40.114C6.76271 39.4865 7.25544 38.984 7.88047 38.7166C8.5055 38.4492 9.21182 38.4389 9.84454 38.6878C10.4773 38.9367 10.9847 39.4245 11.2557 40.0444C11.5266 40.6642 11.5389 41.3654 11.2899 41.9943L10.2443 46.4881C10.2143 46.6167 10.1568 46.7374 10.0755 46.842C9.99433 46.9466 9.89137 47.0326 9.77368 47.0941C9.65598 47.1556 9.52631 47.1912 9.39351 47.1985C9.2607 47.2058 9.12787 47.1845 9.00407 47.1363Z" fill="#CAF031"/>
      <path d="M12.2299 35.415C14.8438 35.415 16.9627 33.3113 16.9627 30.7162C16.9627 28.1211 14.8438 26.0173 12.2299 26.0173C9.61603 26.0173 7.49707 28.1211 7.49707 30.7162C7.49707 33.3113 9.61603 35.415 12.2299 35.415Z" fill="#F3DCCF"/>
      <path d="M15.4854 28.8269C16.5008 28.8212 17.5162 28.8155 18.5317 28.8099C18.6039 28.1228 18.2959 27.4392 17.8471 26.9113C17.3742 26.4034 16.8348 25.9606 16.2434 25.595C15.661 25.1982 15.0576 24.7923 14.3652 24.6536C13.7848 24.5374 13.1849 24.618 12.5985 24.699C11.8209 24.8063 11.0433 24.9137 10.2658 25.021C9.41224 25.1389 8.51919 25.2721 7.82596 25.7804C6.88841 26.4676 6.52978 27.6719 6.22854 28.7896L4.56104 34.976L14.4104 36.0017C14.7667 36.0626 15.1317 36.0521 15.4838 35.9707C15.6591 35.927 15.8177 35.833 15.9397 35.7005C16.0617 35.5681 16.1419 35.4029 16.1702 35.2256C16.1985 34.8268 15.8799 34.5004 15.6211 34.1941C15.0038 33.4347 14.6332 32.5071 14.5585 31.5341C14.4837 30.561 14.7083 29.5884 15.2025 28.7448L15.4854 28.8269Z" fill="#2F2E41"/>
      </svg>
      