<svg width="381" height="237" viewBox="0 0 381 237" fill="none" xmlns="http://www.w3.org/2000/svg">
<path d="M5.4422 229.787C7.0531 231.959 9.05009 233.816 11.3332 235.264C11.8188 235.572 12.3172 235.863 12.8244 236.132H24.7582C24.6154 235.845 24.4765 235.555 24.3421 235.264C20.6419 227.453 19.4816 218.678 21.0243 210.173C22.5669 201.668 26.735 193.86 32.9426 187.848C25.7293 190.077 19.0623 194.422 14.7014 200.584C12.5825 203.585 11.0756 206.975 10.2668 210.559C9.54615 203.391 10.6915 196.159 13.5917 189.565C7.73534 194.331 3.17483 200.857 1.43666 208.204C-0.301515 215.554 0.959791 223.712 5.4422 229.787Z" fill="#CAF031"/>
<path d="M109.802 90.753C109.095 90.7019 108.386 90.8064 107.724 91.0593C107.061 91.3122 106.463 91.7072 105.97 92.2165C105.477 92.7259 105.101 93.3371 104.87 94.0073C104.639 94.6775 104.557 95.3902 104.631 96.0954L89.0332 103.411L96.6677 108.087L110.309 100.424C111.485 100.221 112.546 99.5938 113.291 98.6611C114.035 97.7284 114.412 96.5548 114.349 95.3628C114.287 94.1707 113.789 93.0431 112.951 92.1935C112.113 91.3439 110.993 90.8313 109.802 90.753Z" fill="#F3DCCF"/>
<path d="M45.2572 231.502L50.6442 231.501L53.2069 210.715L45.2563 210.715L45.2572 231.502Z" fill="#F3DCCF"/>
<path d="M43.8833 229.742L54.492 229.742H54.4924C56.2854 229.742 58.0049 230.454 59.2728 231.723C60.5406 232.991 61.253 234.711 61.2531 236.505V236.725L43.8836 236.725L43.8833 229.742Z" fill="#333333"/>
<path d="M43.8833 229.742L54.492 229.742H54.4924C56.2854 229.742 58.0049 230.454 59.2728 231.723C60.5406 232.991 61.253 234.711 61.2531 236.505V236.725L43.8836 236.725L43.8833 229.742Z" fill="black" fill-opacity="0.2"/>
<path d="M72.7445 231.502L78.1315 231.501L80.6943 210.715L72.7437 210.715L72.7445 231.502Z" fill="#F3DCCF"/>
<path d="M71.3706 229.742L81.9793 229.742H81.9797C83.7727 229.742 85.4922 230.454 86.7601 231.723C88.0279 232.991 88.7403 234.711 88.7404 236.505V236.725L71.3709 236.725L71.3706 229.742Z" fill="#333333"/>
<path d="M71.3706 229.742L81.9793 229.742H81.9797C83.7727 229.742 85.4922 230.454 86.7601 231.723C88.0279 232.991 88.7403 234.711 88.7404 236.505V236.725L71.3709 236.725L71.3706 229.742Z" fill="black" fill-opacity="0.2"/>
<path d="M76.3431 123.689L79.0771 129.577L84.0063 182.241L80.1747 227.506H71.2132L60.6387 156.157L55.6718 225.862L43.5801 225.374L41.2588 130.87L76.3431 123.689Z" fill="#6C6C6C"/>
<path d="M32.7722 75.0902L44.1077 70.4766L60.1072 71.3743L74.3312 76.5599L79.0769 129.577C66.7024 136.337 54.1675 138.183 41.4145 133.349L29.5786 98.8171L32.7722 75.0902Z" fill="#008080"/>
<path d="M69.9064 77.9616L74.9367 76.56C74.9367 76.56 78.7414 74.0852 79.9932 81.442C81.245 88.7989 87.6862 100.242 87.6862 100.242L98.7128 94.3633L103.818 105.517L86.4043 116.069L68.0664 97.5846L69.9064 77.9616Z" fill="#008080"/>
<path d="M42.3145 60.6525C41.7036 59.2658 41.3718 57.7723 41.3379 56.2573C41.3039 54.7423 41.5686 53.2354 42.1168 51.8228C42.665 50.4101 43.486 49.1193 44.5328 48.0241C45.5796 46.9288 46.8319 46.0505 48.218 45.4394C49.6041 44.8283 51.097 44.4963 52.6114 44.4624C54.1258 44.4284 55.632 44.6932 57.0441 45.2416C58.4562 45.7901 59.7465 46.6114 60.8413 47.6586C61.9361 48.7059 62.814 49.9586 63.4249 51.3453L63.4908 51.498C64.7045 54.3079 64.7528 57.485 63.6249 60.3304C63.0665 61.7394 62.2361 63.0245 61.1812 64.1123C60.1263 65.2002 58.8675 66.0696 57.4768 66.6708C54.668 67.885 51.4922 67.9333 48.6479 66.805C45.8036 65.6767 43.5238 63.4642 42.3101 60.6543L42.3145 60.6525Z" fill="#F3DCCF"/>
<path d="M57.9742 50.0922C60.3726 50.5275 64.0843 52.0381 66.1442 50.2659C65.1269 49.0768 63.8472 48.1404 62.4062 47.5307C62.1224 47.4365 61.8596 47.2879 61.6325 47.0932C60.9302 46.3832 61.4728 45.1598 61.1515 44.1998C60.9954 43.849 60.76 43.5393 60.4639 43.295C60.1678 43.0507 59.819 42.8786 59.445 42.7922C58.7301 42.5782 57.9809 42.5434 57.2785 42.2839C55.6165 41.659 54.4349 39.8707 52.7312 39.3847C51.2469 38.9552 49.7533 39.6227 48.4722 40.4018C47.1912 41.1808 45.9239 42.1051 44.4252 42.253C43.3053 42.3552 42.5963 44.1981 41.472 44.252C39.1159 44.3667 39.2468 42.8132 39.0725 45.2894C38.9719 46.767 36.8615 49.7066 36.8957 51.1971C36.9306 52.1737 36.7579 53.141 36.7858 54.1207C36.8491 55.9865 37.5972 57.7637 38.8871 59.1128C39.9598 60.2163 41.3549 60.9606 42.2579 62.2185C42.7274 62.8863 43.0532 63.6657 43.5998 64.2699C44.1464 64.8741 45.0722 65.2378 45.6823 64.8064C46.2923 64.3751 46.3037 63.4415 46.6064 62.7311C46.792 62.2956 47.1092 61.929 47.5135 61.6828C47.9178 61.4366 48.3889 61.3231 48.8609 61.3581C49.3511 61.4222 49.8137 61.6219 50.1967 61.9347C50.5797 62.2474 50.8678 62.6609 51.0287 63.1286C50.743 61.5587 49.9899 60.0877 49.7037 58.5166C49.4175 56.9455 49.7905 55.0687 51.1428 54.4553C51.7234 54.185 52.5077 54.1124 52.7411 53.4896C52.884 53.1144 52.7533 52.6712 52.8083 52.2654C53.1055 50.2771 56.4103 49.7851 57.9742 50.0922Z" fill="#333333"/>
<path d="M57.9742 50.0922C60.3726 50.5275 64.0843 52.0381 66.1442 50.2659C65.1269 49.0768 63.8472 48.1404 62.4062 47.5307C62.1224 47.4365 61.8596 47.2879 61.6325 47.0932C60.9302 46.3832 61.4728 45.1598 61.1515 44.1998C60.9954 43.849 60.76 43.5393 60.4639 43.295C60.1678 43.0507 59.819 42.8786 59.445 42.7922C58.7301 42.5782 57.9809 42.5434 57.2785 42.2839C55.6165 41.659 54.4349 39.8707 52.7312 39.3847C51.2469 38.9552 49.7533 39.6227 48.4722 40.4018C47.1912 41.1808 45.9239 42.1051 44.4252 42.253C43.3053 42.3552 42.5963 44.1981 41.472 44.252C39.1159 44.3667 39.2468 42.8132 39.0725 45.2894C38.9719 46.767 36.8615 49.7066 36.8957 51.1971C36.9306 52.1737 36.7579 53.141 36.7858 54.1207C36.8491 55.9865 37.5972 57.7637 38.8871 59.1128C39.9598 60.2163 41.3549 60.9606 42.2579 62.2185C42.7274 62.8863 43.0532 63.6657 43.5998 64.2699C44.1464 64.8741 45.0722 65.2378 45.6823 64.8064C46.2923 64.3751 46.3037 63.4415 46.6064 62.7311C46.792 62.2956 47.1092 61.929 47.5135 61.6828C47.9178 61.4366 48.3889 61.3231 48.8609 61.3581C49.3511 61.4222 49.8137 61.6219 50.1967 61.9347C50.5797 62.2474 50.8678 62.6609 51.0287 63.1286C50.743 61.5587 49.9899 60.0877 49.7037 58.5166C49.4175 56.9455 49.7905 55.0687 51.1428 54.4553C51.7234 54.185 52.5077 54.1124 52.7411 53.4896C52.884 53.1144 52.7533 52.6712 52.8083 52.2654C53.1055 50.2771 56.4103 49.7851 57.9742 50.0922Z" fill="black" fill-opacity="0.2"/>
<path d="M42.7739 132.738C42.6706 132.036 42.4147 131.366 42.0244 130.774C41.6342 130.182 41.1189 129.683 40.515 129.312C39.9111 128.941 39.2332 128.707 38.5291 128.627C37.825 128.546 37.1118 128.621 36.4398 128.846L25.9196 115.199L23.0112 123.669L33.4472 135.33C33.8999 136.434 34.7418 137.334 35.8134 137.859C36.885 138.384 38.1118 138.498 39.2615 138.178C40.4111 137.858 41.4036 137.128 42.051 136.125C42.6984 135.123 42.9556 133.917 42.7739 132.738Z" fill="#F3DCCF"/>
<path d="M36.4066 77.6653L32.7729 75.0913C32.7729 75.0913 24.46 74.6148 23.2507 81.4429L8.00781 106.528L26.9071 132.612L36.0699 122.963L24.5083 109.446L34.2155 91.616L36.4066 77.6653Z" fill="#008080"/>
<path d="M124.935 81.6374H124.744V76.413C124.744 76.0159 124.666 75.6227 124.514 75.2559C124.362 74.889 124.14 74.5557 123.859 74.2749C123.578 73.9941 123.245 73.7714 122.878 73.6194C122.512 73.4675 122.119 73.3893 121.722 73.3893H110.658C110.261 73.3893 109.868 73.4675 109.501 73.6194C109.134 73.7714 108.801 73.9941 108.521 74.2749C108.24 74.5557 108.017 74.889 107.865 75.2559C107.713 75.6227 107.635 76.0159 107.635 76.413V105.074C107.635 105.471 107.713 105.865 107.865 106.231C108.017 106.598 108.24 106.932 108.521 107.212C108.801 107.493 109.134 107.716 109.501 107.868C109.868 108.02 110.261 108.098 110.658 108.098H121.722C122.119 108.098 122.512 108.02 122.878 107.868C123.245 107.716 123.578 107.493 123.859 107.212C124.14 106.932 124.362 106.598 124.514 106.231C124.666 105.865 124.744 105.471 124.744 105.074V85.3562H124.935V81.6374Z" fill="#333333"/>
<path d="M124.935 81.6374H124.744V76.413C124.744 76.0159 124.666 75.6227 124.514 75.2559C124.362 74.889 124.14 74.5557 123.859 74.2749C123.578 73.9941 123.245 73.7714 122.878 73.6194C122.512 73.4675 122.119 73.3893 121.722 73.3893H110.658C110.261 73.3893 109.868 73.4675 109.501 73.6194C109.134 73.7714 108.801 73.9941 108.521 74.2749C108.24 74.5557 108.017 74.889 107.865 75.2559C107.713 75.6227 107.635 76.0159 107.635 76.413V105.074C107.635 105.471 107.713 105.865 107.865 106.231C108.017 106.598 108.24 106.932 108.521 107.212C108.801 107.493 109.134 107.716 109.501 107.868C109.868 108.02 110.261 108.098 110.658 108.098H121.722C122.119 108.098 122.512 108.02 122.878 107.868C123.245 107.716 123.578 107.493 123.859 107.212C124.14 106.932 124.362 106.598 124.514 106.231C124.666 105.865 124.744 105.471 124.744 105.074V85.3562H124.935V81.6374Z" fill="black" fill-opacity="0.2"/>
<path d="M121.843 74.177H120.399C120.465 74.3399 120.491 74.5166 120.473 74.6916C120.455 74.8667 120.394 75.0346 120.296 75.1806C120.198 75.3266 120.066 75.4462 119.91 75.529C119.755 75.6117 119.582 75.655 119.406 75.655H113.068C112.892 75.655 112.719 75.6117 112.563 75.529C112.408 75.4462 112.276 75.3266 112.178 75.1806C112.08 75.0345 112.019 74.8666 112.001 74.6916C111.983 74.5166 112.008 74.3399 112.075 74.177H110.726C110.127 74.177 109.553 74.4149 109.13 74.8384C108.707 75.2619 108.469 75.8362 108.469 76.4351V105.054C108.469 105.653 108.707 106.228 109.13 106.651C109.553 107.075 110.127 107.312 110.726 107.312H121.843C122.442 107.312 123.016 107.075 123.439 106.651C123.863 106.228 124.1 105.653 124.1 105.054V76.4351C124.1 75.8362 123.863 75.2619 123.439 74.8384C123.016 74.4149 122.442 74.177 121.843 74.177Z" fill="#CAF031"/>
<path d="M378.769 144.968H282.834C282.243 144.967 281.675 144.732 281.257 144.314C280.839 143.895 280.604 143.328 280.603 142.736V83.3661C280.604 82.7744 280.839 82.2071 281.257 81.7886C281.675 81.3702 282.243 81.1348 282.834 81.1342H378.769C379.361 81.1348 379.928 81.3702 380.346 81.7886C380.764 82.2071 381 82.7744 381 83.3661V142.736C381 143.328 380.764 143.895 380.346 144.314C379.928 144.732 379.361 144.967 378.769 144.968Z" fill="white"/>
<path d="M378.769 144.968H282.834C282.243 144.967 281.675 144.732 281.257 144.314C280.839 143.895 280.604 143.328 280.603 142.736V83.3661C280.604 82.7744 280.839 82.2071 281.257 81.7886C281.675 81.3702 282.243 81.1348 282.834 81.1342H378.769C379.361 81.1348 379.928 81.3702 380.346 81.7886C380.764 82.2071 381 82.7744 381 83.3661V142.736C381 143.328 380.764 143.895 380.346 144.314C379.928 144.732 379.361 144.967 378.769 144.968ZM282.834 82.0269C282.479 82.0273 282.139 82.1685 281.888 82.4196C281.637 82.6707 281.496 83.0111 281.495 83.3661V142.736C281.496 143.091 281.637 143.432 281.888 143.683C282.139 143.934 282.479 144.075 282.834 144.075H378.769C379.124 144.075 379.464 143.934 379.715 143.683C379.966 143.432 380.107 143.091 380.108 142.736V83.3661C380.107 83.0111 379.966 82.6707 379.715 82.4196C379.464 82.1685 379.124 82.0273 378.769 82.0269H282.834Z" fill="#333333"/>
<path d="M378.769 144.968H282.834C282.243 144.967 281.675 144.732 281.257 144.314C280.839 143.895 280.604 143.328 280.603 142.736V83.3661C280.604 82.7744 280.839 82.2071 281.257 81.7886C281.675 81.3702 282.243 81.1348 282.834 81.1342H378.769C379.361 81.1348 379.928 81.3702 380.346 81.7886C380.764 82.2071 381 82.7744 381 83.3661V142.736C381 143.328 380.764 143.895 380.346 144.314C379.928 144.732 379.361 144.967 378.769 144.968ZM282.834 82.0269C282.479 82.0273 282.139 82.1685 281.888 82.4196C281.637 82.6707 281.496 83.0111 281.495 83.3661V142.736C281.496 143.091 281.637 143.432 281.888 143.683C282.139 143.934 282.479 144.075 282.834 144.075H378.769C379.124 144.075 379.464 143.934 379.715 143.683C379.966 143.432 380.107 143.091 380.108 142.736V83.3661C380.107 83.0111 379.966 82.6707 379.715 82.4196C379.464 82.1685 379.124 82.0273 378.769 82.0269H282.834Z" fill="black" fill-opacity="0.2"/>
<path d="M359.805 100.962H301.798C301.265 100.962 300.755 100.75 300.378 100.374C300.002 99.9968 299.79 99.4859 299.79 98.9531C299.79 98.4204 300.002 97.9094 300.378 97.5327C300.755 97.156 301.265 96.9443 301.798 96.9443H359.805C360.338 96.9443 360.849 97.156 361.225 97.5327C361.602 97.9094 361.813 98.4204 361.813 98.9531C361.813 99.4859 361.602 99.9968 361.225 100.374C360.849 100.75 360.338 100.962 359.805 100.962Z" fill="#CCCCCC"/>
<path d="M359.805 114.8H301.798C301.265 114.8 300.755 114.588 300.378 114.211C300.002 113.835 299.79 113.324 299.79 112.791C299.79 112.258 300.002 111.747 300.378 111.371C300.755 110.994 301.265 110.782 301.798 110.782H359.805C360.338 110.782 360.849 110.994 361.225 111.371C361.602 111.747 361.813 112.258 361.813 112.791C361.813 113.324 361.602 113.835 361.225 114.211C360.849 114.588 360.338 114.8 359.805 114.8Z" fill="#CCCCCC"/>
<path d="M354.638 136.743C358.601 136.743 361.814 133.529 361.814 129.564C361.814 125.599 358.601 122.385 354.638 122.385C350.675 122.385 347.462 125.599 347.462 129.564C347.462 133.529 350.675 136.743 354.638 136.743Z" fill="#CAF031"/>
<path d="M354.835 126.182V125.498H355.037V126.182C355.324 126.195 355.605 126.263 355.865 126.385C356.053 126.473 356.216 126.609 356.337 126.778C356.449 126.935 356.509 127.123 356.508 127.316C356.512 127.457 356.465 127.594 356.375 127.703C356.337 127.752 356.287 127.792 356.231 127.82C356.174 127.847 356.112 127.861 356.049 127.86C356.003 127.861 355.956 127.853 355.913 127.835C355.869 127.817 355.83 127.791 355.797 127.757C355.764 127.724 355.737 127.684 355.719 127.639C355.701 127.595 355.693 127.548 355.694 127.501C355.694 127.434 355.708 127.368 355.734 127.307L355.815 127.136C355.844 127.065 355.858 126.988 355.856 126.911C355.858 126.792 355.82 126.675 355.748 126.58C355.669 126.481 355.563 126.407 355.442 126.367C355.311 126.324 355.175 126.296 355.037 126.286V128.747L355.082 128.774C355.505 128.998 355.889 129.288 356.22 129.633C356.367 129.807 356.483 130.004 356.564 130.216C356.645 130.422 356.687 130.641 356.688 130.862C356.692 131.148 356.617 131.429 356.472 131.676C356.331 131.917 356.123 132.112 355.874 132.239C355.611 132.367 355.328 132.45 355.037 132.482V133.215H354.835V132.495C354.541 132.493 354.251 132.433 353.98 132.32C353.71 132.219 353.472 132.048 353.29 131.825C353.13 131.624 353.043 131.375 353.045 131.118C353.039 130.938 353.095 130.761 353.202 130.616C353.245 130.554 353.302 130.503 353.368 130.467C353.435 130.432 353.509 130.413 353.585 130.412C353.63 130.41 353.675 130.418 353.717 130.434C353.759 130.451 353.798 130.476 353.83 130.508C353.862 130.54 353.887 130.578 353.903 130.62C353.92 130.663 353.928 130.708 353.926 130.753C353.911 130.892 353.853 131.022 353.76 131.126C353.712 131.19 353.67 131.259 353.636 131.332C353.613 131.389 353.602 131.45 353.603 131.512C353.603 131.676 353.66 131.835 353.762 131.963C353.874 132.106 354.023 132.217 354.192 132.284C354.385 132.359 354.591 132.396 354.799 132.392H354.835V129.453L354.579 129.305C354.336 129.164 354.151 129.047 354.023 128.954C353.899 128.864 353.783 128.761 353.679 128.648C353.421 128.373 353.277 128.009 353.279 127.631C353.277 127.396 353.336 127.164 353.45 126.958C353.561 126.753 353.723 126.58 353.922 126.457C354.198 126.29 354.512 126.195 354.835 126.182ZM354.835 126.281C354.661 126.287 354.489 126.325 354.329 126.393C354.169 126.473 354.037 126.6 353.953 126.757C353.856 126.928 353.807 127.122 353.809 127.318C353.808 127.558 353.881 127.792 354.02 127.988C354.093 128.094 354.181 128.189 354.282 128.271C354.444 128.392 354.614 128.503 354.79 128.603L354.835 128.63V126.281ZM355.037 132.383C355.153 132.373 355.268 132.349 355.378 132.311C355.467 132.276 355.55 132.227 355.624 132.167C355.763 132.048 355.87 131.898 355.937 131.728C356.016 131.541 356.055 131.339 356.054 131.136C356.036 130.81 355.933 130.495 355.754 130.221C355.576 129.948 355.328 129.727 355.037 129.579V132.383Z" fill="white"/>
<path d="M313.419 105.231H217.484C216.892 105.23 216.325 104.995 215.907 104.577C215.488 104.158 215.253 103.591 215.252 102.999V43.6289C215.253 43.0372 215.488 42.4699 215.907 42.0515C216.325 41.633 216.892 41.3976 217.484 41.397H313.419C314.01 41.3976 314.577 41.633 314.995 42.0515C315.414 42.4699 315.649 43.0372 315.65 43.6289V102.999C315.649 103.591 315.414 104.158 314.995 104.577C314.577 104.995 314.01 105.23 313.419 105.231Z" fill="white"/>
<path d="M313.419 105.231H217.484C216.892 105.23 216.325 104.995 215.907 104.577C215.488 104.158 215.253 103.591 215.252 102.999V43.6289C215.253 43.0372 215.488 42.4699 215.907 42.0515C216.325 41.633 216.892 41.3976 217.484 41.397H313.419C314.01 41.3976 314.577 41.633 314.995 42.0515C315.414 42.4699 315.649 43.0372 315.65 43.6289V102.999C315.649 103.591 315.414 104.158 314.995 104.577C314.577 104.995 314.01 105.23 313.419 105.231ZM217.484 42.2898C217.129 42.2902 216.788 42.4314 216.537 42.6824C216.286 42.9335 216.145 43.2739 216.145 43.6289V102.999C216.145 103.354 216.286 103.694 216.537 103.946C216.788 104.197 217.129 104.338 217.484 104.338H313.419C313.774 104.338 314.114 104.197 314.365 103.946C314.616 103.694 314.757 103.354 314.757 102.999V43.6289C314.757 43.2739 314.616 42.9335 314.365 42.6824C314.114 42.4314 313.774 42.2902 313.419 42.2898H217.484Z" fill="#333333"/>
<path d="M313.419 105.231H217.484C216.892 105.23 216.325 104.995 215.907 104.577C215.488 104.158 215.253 103.591 215.252 102.999V43.6289C215.253 43.0372 215.488 42.4699 215.907 42.0515C216.325 41.633 216.892 41.3976 217.484 41.397H313.419C314.01 41.3976 314.577 41.633 314.995 42.0515C315.414 42.4699 315.649 43.0372 315.65 43.6289V102.999C315.649 103.591 315.414 104.158 314.995 104.577C314.577 104.995 314.01 105.23 313.419 105.231ZM217.484 42.2898C217.129 42.2902 216.788 42.4314 216.537 42.6824C216.286 42.9335 216.145 43.2739 216.145 43.6289V102.999C216.145 103.354 216.286 103.694 216.537 103.946C216.788 104.197 217.129 104.338 217.484 104.338H313.419C313.774 104.338 314.114 104.197 314.365 103.946C314.616 103.694 314.757 103.354 314.757 102.999V43.6289C314.757 43.2739 314.616 42.9335 314.365 42.6824C314.114 42.4314 313.774 42.2902 313.419 42.2898H217.484Z" fill="black" fill-opacity="0.2"/>
<path d="M294.454 61.2219H236.447C235.914 61.2219 235.404 61.0103 235.027 60.6335C234.651 60.2568 234.439 59.7459 234.439 59.2131C234.439 58.6804 234.651 58.1694 235.027 57.7927C235.404 57.416 235.914 57.2043 236.447 57.2043H294.454C294.987 57.2043 295.498 57.416 295.874 57.7927C296.251 58.1694 296.462 58.6804 296.462 59.2131C296.462 59.7459 296.251 60.2568 295.874 60.6335C295.498 61.0103 294.987 61.2219 294.454 61.2219Z" fill="#CCCCCC"/>
<path d="M294.454 75.0597H236.447C235.914 75.0597 235.404 74.848 235.027 74.4713C234.651 74.0946 234.439 73.5837 234.439 73.0509C234.439 72.5181 234.651 72.0072 235.027 71.6305C235.404 71.2538 235.914 71.0421 236.447 71.0421H294.454C294.987 71.0421 295.498 71.2538 295.874 71.6305C296.251 72.0072 296.462 72.5181 296.462 73.0509C296.462 73.5837 296.251 74.0946 295.874 74.4713C295.498 74.848 294.987 75.0597 294.454 75.0597Z" fill="#CCCCCC"/>
<path d="M289.286 96.9997C293.249 96.9997 296.462 93.7857 296.462 89.821C296.462 85.8563 293.249 82.6422 289.286 82.6422C285.323 82.6422 282.11 85.8563 282.11 89.821C282.11 93.7857 285.323 96.9997 289.286 96.9997Z" fill="#CAF031"/>
<path d="M289.484 86.4392V85.7552H289.687V86.4392C289.973 86.4517 290.254 86.5204 290.514 86.6417C290.703 86.7303 290.865 86.8659 290.987 87.0355C291.098 87.1924 291.158 87.3804 291.158 87.5731C291.162 87.7139 291.115 87.8515 291.025 87.9601C290.986 88.0095 290.937 88.0494 290.88 88.0767C290.824 88.104 290.762 88.118 290.699 88.1176C290.652 88.1185 290.605 88.1098 290.562 88.092C290.519 88.0742 290.48 88.0477 290.447 88.0141C290.413 87.9807 290.386 87.9407 290.369 87.8966C290.351 87.8525 290.342 87.8052 290.343 87.7576C290.344 87.691 290.357 87.6252 290.384 87.5641L290.465 87.3931C290.493 87.3217 290.507 87.2451 290.505 87.1681C290.508 87.0489 290.47 86.9324 290.397 86.8375C290.318 86.738 290.212 86.6636 290.092 86.6237C289.96 86.5806 289.824 86.5534 289.687 86.5427V89.0039L289.732 89.031C290.154 89.2548 290.539 89.545 290.87 89.8904C291.016 90.0639 291.133 90.2609 291.214 90.4732C291.295 90.6789 291.337 90.8978 291.337 91.1188C291.341 91.4049 291.267 91.6865 291.122 91.9332C290.98 92.174 290.772 92.3692 290.523 92.4957C290.261 92.6245 289.978 92.7067 289.687 92.7387V93.4721H289.484V92.7522C289.191 92.7498 288.901 92.6902 288.63 92.5767C288.36 92.4762 288.121 92.3053 287.939 92.0817C287.779 91.8813 287.693 91.6319 287.694 91.3753C287.689 91.195 287.744 91.0182 287.852 90.8735C287.894 90.8111 287.951 90.7599 288.018 90.7243C288.084 90.6886 288.158 90.6696 288.234 90.6688C288.279 90.6672 288.324 90.675 288.366 90.6916C288.409 90.7081 288.447 90.7332 288.479 90.7652C288.511 90.7972 288.536 90.8354 288.553 90.8776C288.569 90.9197 288.577 90.9648 288.576 91.0101C288.561 91.1486 288.502 91.2789 288.409 91.3827C288.361 91.4469 288.319 91.5162 288.286 91.5892C288.263 91.6462 288.251 91.7073 288.252 91.7688C288.253 91.9329 288.309 92.0919 288.412 92.2199C288.524 92.3633 288.672 92.4741 288.841 92.5408C289.035 92.6163 289.241 92.6529 289.448 92.6487H289.484V89.7104L289.228 89.5619C288.985 89.421 288.8 89.304 288.672 89.2109C288.548 89.1206 288.433 89.0181 288.328 88.905C288.07 88.6296 287.927 88.2657 287.928 87.8881C287.927 87.6529 287.986 87.4214 288.099 87.2154C288.21 87.0099 288.373 86.8369 288.571 86.7137C288.848 86.5469 289.162 86.4525 289.484 86.4392ZM289.484 86.5382C289.31 86.5436 289.138 86.5817 288.978 86.6505C288.818 86.7298 288.687 86.8569 288.602 87.0143C288.506 87.1854 288.456 87.3791 288.459 87.5756C288.457 87.8152 288.531 88.0493 288.669 88.2447C288.743 88.3511 288.831 88.4464 288.931 88.5278C289.094 88.649 289.263 88.7599 289.44 88.86L289.484 88.887V86.5382ZM289.687 92.6397C289.803 92.63 289.917 92.6058 290.027 92.5677C290.116 92.5331 290.199 92.4845 290.273 92.4237C290.412 92.3054 290.52 92.1547 290.587 91.9851C290.665 91.7976 290.705 91.5964 290.703 91.3933C290.685 91.0673 290.582 90.7518 290.404 90.4785C290.225 90.2052 289.978 89.9838 289.687 89.8364V92.6397Z" fill="white"/>
<path d="M246.786 64.7202H150.851C150.259 64.7196 149.692 64.4842 149.274 64.0658C148.856 63.6473 148.62 63.08 148.62 62.4883V3.11819C148.62 2.52645 148.856 1.95913 149.274 1.5407C149.692 1.12228 150.259 0.886908 150.851 0.88623H246.786C247.377 0.886908 247.944 1.12228 248.363 1.5407C248.781 1.95913 249.016 2.52645 249.017 3.11819V62.4883C249.016 63.08 248.781 63.6473 248.363 64.0658C247.944 64.4842 247.377 64.7196 246.786 64.7202Z" fill="white"/>
<path d="M246.786 64.7202H150.851C150.259 64.7196 149.692 64.4842 149.274 64.0658C148.856 63.6473 148.62 63.08 148.62 62.4883V3.11819C148.62 2.52645 148.856 1.95913 149.274 1.5407C149.692 1.12228 150.259 0.886908 150.851 0.88623H246.786C247.377 0.886908 247.944 1.12228 248.363 1.5407C248.781 1.95913 249.016 2.52645 249.017 3.11819V62.4883C249.016 63.08 248.781 63.6473 248.363 64.0658C247.944 64.4842 247.377 64.7196 246.786 64.7202ZM150.851 1.77901C150.496 1.7794 150.156 1.92062 149.905 2.17168C149.654 2.42274 149.512 2.76314 149.512 3.11819V62.4883C149.512 62.8433 149.654 63.1837 149.905 63.4348C150.156 63.6859 150.496 63.8271 150.851 63.8275H246.786C247.141 63.8271 247.481 63.6859 247.732 63.4348C247.983 63.1837 248.124 62.8433 248.124 62.4883V3.11819C248.124 2.76314 247.983 2.42274 247.732 2.17168C247.481 1.92062 247.141 1.7794 246.786 1.77901H150.851Z" fill="#333333"/>
<path d="M246.786 64.7202H150.851C150.259 64.7196 149.692 64.4842 149.274 64.0658C148.856 63.6473 148.62 63.08 148.62 62.4883V3.11819C148.62 2.52645 148.856 1.95913 149.274 1.5407C149.692 1.12228 150.259 0.886908 150.851 0.88623H246.786C247.377 0.886908 247.944 1.12228 248.363 1.5407C248.781 1.95913 249.016 2.52645 249.017 3.11819V62.4883C249.016 63.08 248.781 63.6473 248.363 64.0658C247.944 64.4842 247.377 64.7196 246.786 64.7202ZM150.851 1.77901C150.496 1.7794 150.156 1.92062 149.905 2.17168C149.654 2.42274 149.512 2.76314 149.512 3.11819V62.4883C149.512 62.8433 149.654 63.1837 149.905 63.4348C150.156 63.6859 150.496 63.8271 150.851 63.8275H246.786C247.141 63.8271 247.481 63.6859 247.732 63.4348C247.983 63.1837 248.124 62.8433 248.124 62.4883V3.11819C248.124 2.76314 247.983 2.42274 247.732 2.17168C247.481 1.92062 247.141 1.7794 246.786 1.77901H150.851Z" fill="black" fill-opacity="0.2"/>
<path d="M227.822 20.7163H169.815C169.282 20.7163 168.771 20.5046 168.395 20.1279C168.018 19.7512 167.807 19.2403 167.807 18.7075C167.807 18.1747 168.018 17.6638 168.395 17.2871C168.771 16.9104 169.282 16.6987 169.815 16.6987H227.822C228.354 16.6987 228.865 16.9104 229.242 17.2871C229.618 17.6638 229.83 18.1747 229.83 18.7075C229.83 19.2403 229.618 19.7512 229.242 20.1279C228.865 20.5046 228.354 20.7163 227.822 20.7163Z" fill="#CCCCCC"/>
<path d="M227.822 34.5542H169.815C169.282 34.5542 168.771 34.3425 168.395 33.9658C168.018 33.5891 167.807 33.0782 167.807 32.5454C167.807 32.0126 168.018 31.5017 168.395 31.125C168.771 30.7483 169.282 30.5366 169.815 30.5366H227.822C228.354 30.5366 228.865 30.7483 229.242 31.125C229.618 31.5017 229.83 32.0126 229.83 32.5454C229.83 33.0782 229.618 33.5891 229.242 33.9658C228.865 34.3425 228.354 34.5542 227.822 34.5542Z" fill="#CCCCCC"/>
<path d="M222.654 56.4942C226.617 56.4942 229.83 53.2802 229.83 49.3155C229.83 45.3508 226.617 42.1367 222.654 42.1367C218.691 42.1367 215.479 45.3508 215.479 49.3155C215.479 53.2802 218.691 56.4942 222.654 56.4942Z" fill="#CAF031"/>
<path d="M222.851 45.9337V45.2498H223.053V45.9337C223.34 45.9462 223.621 46.015 223.881 46.1362C224.07 46.2248 224.232 46.3604 224.353 46.53C224.465 46.6869 224.525 46.8749 224.524 47.0676C224.528 47.2085 224.481 47.346 224.392 47.4546C224.353 47.504 224.303 47.544 224.247 47.5713C224.19 47.5986 224.128 47.6125 224.065 47.6121C224.019 47.613 223.972 47.6043 223.929 47.5865C223.885 47.5687 223.846 47.5422 223.814 47.5086C223.78 47.4752 223.753 47.4352 223.735 47.3911C223.717 47.347 223.709 47.2997 223.71 47.2521C223.71 47.1855 223.724 47.1197 223.751 47.0586L223.832 46.8876C223.86 46.8162 223.874 46.7396 223.872 46.6627C223.874 46.5434 223.836 46.4269 223.764 46.332C223.685 46.2325 223.579 46.1582 223.458 46.1182C223.327 46.0751 223.191 46.0479 223.053 46.0372V48.4985L223.098 48.5255C223.521 48.7493 223.905 49.0395 224.236 49.3849C224.383 49.5584 224.499 49.7554 224.58 49.9677C224.661 50.1734 224.703 50.3923 224.704 50.6133C224.708 50.8994 224.633 51.1811 224.488 51.4277C224.347 51.6685 224.139 51.8637 223.89 51.9902C223.627 52.119 223.344 52.2012 223.053 52.2332V52.9666H222.851V52.2467C222.558 52.2443 222.267 52.1847 221.996 52.0712C221.726 51.9707 221.488 51.7998 221.306 51.5762C221.146 51.3758 221.059 51.1264 221.061 50.8698C221.055 50.6895 221.111 50.5127 221.218 50.368C221.261 50.3056 221.318 50.2544 221.384 50.2188C221.451 50.1832 221.525 50.1641 221.601 50.1633C221.646 50.1618 221.691 50.1695 221.733 50.1861C221.775 50.2026 221.814 50.2277 221.846 50.2597C221.878 50.2917 221.903 50.33 221.92 50.3721C221.936 50.4142 221.944 50.4593 221.943 50.5046C221.927 50.6431 221.869 50.7734 221.776 50.8772C221.728 50.9414 221.686 51.0107 221.652 51.0837C221.629 51.1407 221.618 51.2018 221.619 51.2633C221.619 51.4274 221.676 51.5864 221.778 51.7144C221.89 51.8578 222.039 51.9686 222.208 52.0353C222.401 52.1108 222.608 52.1474 222.815 52.1432H222.851V49.2049L222.595 49.0564C222.352 48.9155 222.167 48.7985 222.039 48.7055C221.915 48.6151 221.799 48.5126 221.695 48.3995C221.437 48.1241 221.293 47.7603 221.295 47.3826C221.294 47.1474 221.352 46.9159 221.466 46.7099C221.577 46.5044 221.74 46.3314 221.938 46.2082C222.214 46.0414 222.528 45.947 222.851 45.9337ZM222.851 46.0327C222.677 46.0381 222.505 46.0762 222.345 46.145C222.185 46.2243 222.054 46.3515 221.969 46.5088C221.872 46.6799 221.823 46.8736 221.826 47.0701C221.824 47.3097 221.897 47.5438 222.036 47.7392C222.109 47.8456 222.198 47.9409 222.298 48.0223C222.46 48.1435 222.63 48.2544 222.806 48.3545L222.851 48.3815V46.0327ZM223.053 52.1342C223.169 52.1245 223.284 52.1003 223.394 52.0622C223.483 52.0276 223.566 51.979 223.64 51.9182C223.779 51.7999 223.887 51.6493 223.954 51.4796C224.032 51.2921 224.071 51.0909 224.07 50.8878C224.052 50.5618 223.949 50.2463 223.77 49.973C223.592 49.6997 223.345 49.4783 223.053 49.3309V52.1342Z" fill="white"/>
</svg>
